<svg width="45" height="45" viewBox="0 0 45 45" fill="none" xmlns="http://www.w3.org/2000/svg">
<path d="M43.5 19.4901H44.5V19.213L44.3573 18.9754L43.5 19.4901ZM1.5 19.4901L0.642657 18.9754L0.5 19.213V19.4901H1.5ZM7.8779 8.86729L7.02055 8.35255V8.35255L7.8779 8.86729ZM37.1221 8.86729L37.9794 8.35255L37.1221 8.86729ZM10.5 34.5V33.5H9.5V34.5H10.5ZM34.5 34.5H35.5V33.5H34.5V34.5ZM42.5 19.4901V37.5H44.5V19.4901H42.5ZM2.35734 20.0049L8.73524 9.38204L7.02055 8.35255L0.642657 18.9754L2.35734 20.0049ZM15.594 5.5H29.406V3.5H15.594V5.5ZM36.2648 9.38204L42.6427 20.0049L44.3573 18.9754L37.9794 8.35255L36.2648 9.38204ZM7.5 39.5H4.5V41.5H7.5V39.5ZM9.5 34.5V37.5H11.5V34.5H9.5ZM40.5 39.5H37.5V41.5H40.5V39.5ZM35.5 37.5V34.5H33.5V37.5H35.5ZM34.5 33.5H10.5V35.5H34.5V33.5ZM2.5 37.5V19.4901H0.5V37.5H2.5ZM37.5 39.5C36.3954 39.5 35.5 38.6046 35.5 37.5H33.5C33.5 39.7091 35.2909 41.5 37.5 41.5V39.5ZM7.5 41.5C9.70914 41.5 11.5 39.7091 11.5 37.5H9.5C9.5 38.6046 8.60457 39.5 7.5 39.5V41.5ZM4.5 39.5C3.39543 39.5 2.5 38.6046 2.5 37.5H0.5C0.5 39.7091 2.29086 41.5 4.5 41.5V39.5ZM29.406 5.5C32.2153 5.5 34.8187 6.97353 36.2648 9.38204L37.9794 8.35255C36.1719 5.34191 32.9176 3.5 29.406 3.5V5.5ZM8.73524 9.38204C10.1813 6.97353 12.7847 5.5 15.594 5.5V3.5C12.0824 3.5 8.82813 5.34191 7.02055 8.35255L8.73524 9.38204ZM42.5 37.5C42.5 38.6046 41.6046 39.5 40.5 39.5V41.5C42.7091 41.5 44.5 39.7091 44.5 37.5H42.5ZM6 29.5H15V27.5H6V29.5ZM39 27.5H30V29.5H39V27.5ZM9 20.5H36V18.5H9V20.5Z" fill="#7856BA"/>
</svg>
