<svg width="52" height="60" viewBox="0 0 52 60" fill="none" xmlns="http://www.w3.org/2000/svg">
<path d="M6 30C6 32.5712 6.76244 35.0846 8.1909 37.2224C9.61935 39.3603 11.6497 41.0265 14.0251 42.0104C16.4006 42.9944 19.0144 43.2518 21.5362 42.7502C24.0579 42.2486 26.3743 41.0105 28.1924 39.1924C30.0105 37.3743 31.2486 35.0579 31.7502 32.5362C32.2518 30.0144 31.9944 27.4006 31.0104 25.0251C30.0265 22.6497 28.3603 20.6194 26.2224 19.1909C24.0846 17.7624 21.5712 17 19 17C15.5534 17.004 12.2491 18.3749 9.812 20.812C7.37488 23.2491 6.00397 26.5534 6 30ZM30 30C30 32.1756 29.3549 34.3023 28.1462 36.1113C26.9375 37.9202 25.2195 39.3301 23.2095 40.1627C21.1995 40.9952 18.9878 41.2131 16.854 40.7886C14.7202 40.3642 12.7602 39.3166 11.2218 37.7782C9.68345 36.2398 8.6358 34.2798 8.21136 32.146C7.78692 30.0122 8.00476 27.8005 8.83733 25.7905C9.66989 23.7805 11.0798 22.0625 12.8887 20.8538C14.6977 19.6451 16.8244 19 19 19C21.9163 19.0034 24.7122 20.1635 26.7744 22.2256C28.8365 24.2878 29.9966 27.0837 30 30Z" fill="black"/>
<path d="M13.343 30C12.5928 30.7502 12.1714 31.7676 12.1714 32.8285C12.1714 33.8894 12.5928 34.9068 13.343 35.657C14.0932 36.4072 15.1106 36.8286 16.1715 36.8286C17.2324 36.8286 18.2498 36.4072 19 35.657L24.657 30C25.4072 29.2498 25.8286 28.2324 25.8286 27.1715C25.8286 26.1106 25.4072 25.0932 24.657 24.343C23.9068 23.5928 22.8894 23.1714 21.8285 23.1714C20.7676 23.1714 19.7502 23.5928 19 24.343L13.343 30ZM17.586 34.243C17.4002 34.4287 17.1797 34.5761 16.937 34.6766C16.6943 34.7772 16.4342 34.8289 16.1715 34.8289C15.9088 34.8289 15.6487 34.7772 15.406 34.6766C15.1633 34.5761 14.9427 34.4287 14.757 34.243C14.5712 34.0572 14.4239 33.8367 14.3234 33.594C14.2228 33.3513 14.1711 33.0912 14.1711 32.8285C14.1711 32.5658 14.2228 32.3057 14.3234 32.063C14.4239 31.8203 14.5712 31.5997 14.757 31.414L16.879 29.293L19.707 32.121L17.586 34.243ZM21.829 25.173C22.2243 25.1733 22.6106 25.2907 22.9392 25.5104C23.2678 25.7301 23.524 26.0423 23.6753 26.4075C23.8266 26.7727 23.8663 27.1745 23.7893 27.5623C23.7124 27.95 23.5223 28.3062 23.243 28.586L21.121 30.707L18.293 27.879L20.414 25.757C20.5999 25.5715 20.8206 25.4245 21.0634 25.3243C21.3062 25.2241 21.5663 25.1727 21.829 25.173Z" fill="black"/>
<path d="M36 50H2V10H38V5C37.9984 3.67441 37.4711 2.40356 36.5338 1.46622C35.5964 0.528882 34.3256 0.00158786 33 0H5C3.67441 0.00158786 2.40356 0.528882 1.46622 1.46622C0.528882 2.40356 0.00158786 3.67441 0 5V55C0.00158786 56.3256 0.528882 57.5964 1.46622 58.5338C2.40356 59.4711 3.67441 59.9984 5 60H33C34.3256 59.9984 35.5964 59.4711 36.5338 58.5338C37.4711 57.5964 37.9984 56.3256 38 55V33H36V50ZM5 2H33C33.7957 2 34.5587 2.31607 35.1213 2.87868C35.6839 3.44129 36 4.20435 36 5V8H2V5C2 4.20435 2.31607 3.44129 2.87868 2.87868C3.44129 2.31607 4.20435 2 5 2ZM33 58H5C4.20435 58 3.44129 57.6839 2.87868 57.1213C2.31607 56.5587 2 55.7957 2 55V52H36V55C36 55.7957 35.6839 56.5587 35.1213 57.1213C34.5587 57.6839 33.7957 58 33 58Z" fill="black"/>
<path d="M6 5C6 5.55228 6.44772 6 7 6C7.55228 6 8 5.55228 8 5C8 4.44772 7.55228 4 7 4C6.44772 4 6 4.44772 6 5Z" fill="black"/>
<path d="M13 4H11C10.4477 4 10 4.44772 10 5C10 5.55228 10.4477 6 11 6H13C13.5523 6 14 5.55228 14 5C14 4.44772 13.5523 4 13 4Z" fill="black"/>
<path d="M21 54H17C16.4477 54 16 54.4477 16 55C16 55.5523 16.4477 56 17 56H21C21.5523 56 22 55.5523 22 55C22 54.4477 21.5523 54 21 54Z" fill="black"/>
<path d="M49 12H35C34.2044 12 33.4413 12.3161 32.8787 12.8787C32.3161 13.4413 32 14.2044 32 15V23C32 23.7956 32.3161 24.5587 32.8787 25.1213C33.4413 25.6839 34.2044 26 35 26H38V30C37.9999 30.2073 38.0643 30.4095 38.1841 30.5786C38.304 30.7477 38.4734 30.8754 38.669 30.944C38.7755 30.9808 38.8873 30.9997 39 31C39.15 31.0001 39.298 30.9664 39.4332 30.9015C39.5684 30.8366 39.6873 30.7421 39.781 30.625L43.48 26H49C49.7956 26 50.5587 25.6839 51.1213 25.1213C51.6839 24.5587 52 23.7956 52 23V15C52 14.2044 51.6839 13.4413 51.1213 12.8787C50.5587 12.3161 49.7956 12 49 12ZM50 23C50 23.2652 49.8946 23.5196 49.7071 23.7071C49.5196 23.8946 49.2652 24 49 24H43C42.85 23.9999 42.702 24.0336 42.5668 24.0985C42.4316 24.1634 42.3127 24.2579 42.219 24.375L40 27.149V25C40 24.7348 39.8946 24.4804 39.7071 24.2929C39.5196 24.1054 39.2652 24 39 24H35C34.7348 24 34.4804 23.8946 34.2929 23.7071C34.1054 23.5196 34 23.2652 34 23V15C34 14.7348 34.1054 14.4804 34.2929 14.2929C34.4804 14.1054 34.7348 14 35 14H49C49.2652 14 49.5196 14.1054 49.7071 14.2929C49.8946 14.4804 50 14.7348 50 15V23Z" fill="black"/>
<path d="M41 19C41 19.5523 41.4477 20 42 20C42.5523 20 43 19.5523 43 19C43 18.4477 42.5523 18 42 18C41.4477 18 41 18.4477 41 19Z" fill="black"/>
<path d="M45 19C45 19.5523 45.4477 20 46 20C46.5523 20 47 19.5523 47 19C47 18.4477 46.5523 18 46 18C45.4477 18 45 18.4477 45 19Z" fill="black"/>
<path d="M37 19C37 19.5523 37.4477 20 38 20C38.5523 20 39 19.5523 39 19C39 18.4477 38.5523 18 38 18C37.4477 18 37 18.4477 37 19Z" fill="black"/>
</svg>
