<svg width="55" height="60" viewBox="0 0 55 60" fill="none" xmlns="http://www.w3.org/2000/svg">
<path d="M27.0001 25.667V24C27.5305 24 28.0392 23.7893 28.4143 23.4142C28.7893 23.0391 29.0001 22.5304 29.0001 22V18C29.0001 17.4696 28.7893 16.9609 28.4143 16.5858C28.0392 16.2107 27.5305 16 27.0001 16H3.00006C2.46962 16 1.96092 16.2107 1.58584 16.5858C1.21077 16.9609 1.00006 17.4696 1.00006 18V22C1.00006 22.5304 1.21077 23.0391 1.58584 23.4142C1.96092 23.7893 2.46962 24 3.00006 24V25.667L0.607056 28.861C0.209569 29.3799 -0.00397862 30.0163 5.61412e-05 30.67V57C5.61412e-05 57.7957 0.316127 58.5587 0.878736 59.1213C1.44134 59.6839 2.20441 60 3.00006 60H27.0001C27.7957 60 28.5588 59.6839 29.1214 59.1213C29.684 58.5587 30.0001 57.7957 30.0001 57V30.67C30.005 30.0201 29.794 29.387 29.4001 28.87L27.0001 25.667ZM3.00006 18H6.00006V20H8.00006V18H10.0001V20H12.0001V18H14.0001V20H16.0001V18H18.0001V20H20.0001V18H22.0001V20H24.0001V18H27.0001V22H3.00006V18ZM28.0001 57C28.0001 57.2652 27.8947 57.5196 27.7072 57.7071C27.5196 57.8946 27.2653 58 27.0001 58H3.00006C2.73484 58 2.48049 57.8946 2.29295 57.7071C2.10541 57.5196 2.00006 57.2652 2.00006 57V30.67C1.99759 30.4532 2.06802 30.2419 2.20006 30.07L4.80006 26.6C4.92988 26.4269 5.00006 26.2164 5.00006 26V24H25.0001V26C25.0001 26.2164 25.0702 26.4269 25.2001 26.6L27.8081 30.079C27.9355 30.2494 28.003 30.4572 28.0001 30.67V57Z" fill="black"/>
<path d="M23.0001 31H7.00006C6.20441 31 5.44135 31.3161 4.87874 31.8787C4.31613 32.4413 4.00006 33.2044 4.00006 34V52C4.00006 52.7956 4.31613 53.5587 4.87874 54.1213C5.44135 54.6839 6.20441 55 7.00006 55H23.0001C23.7957 55 24.5588 54.6839 25.1214 54.1213C25.684 53.5587 26.0001 52.7956 26.0001 52V34C26.0001 33.2044 25.684 32.4413 25.1214 31.8787C24.5588 31.3161 23.7957 31 23.0001 31ZM24.0001 52C24.0001 52.2652 23.8947 52.5196 23.7072 52.7071C23.5196 52.8946 23.2653 53 23.0001 53H7.00006C6.73484 53 6.48049 52.8946 6.29295 52.7071C6.10542 52.5196 6.00006 52.2652 6.00006 52V34C6.00006 33.7348 6.10542 33.4804 6.29295 33.2929C6.48049 33.1054 6.73484 33 7.00006 33H23.0001C23.2653 33 23.5196 33.1054 23.7072 33.2929C23.8947 33.4804 24.0001 33.7348 24.0001 34V52Z" fill="black"/>
<path d="M21.0001 40H18.0001V37C18.0001 36.7348 17.8947 36.4804 17.7072 36.2929C17.5196 36.1054 17.2653 36 17.0001 36H13.0001C12.7348 36 12.4805 36.1054 12.293 36.2929C12.1054 36.4804 12.0001 36.7348 12.0001 37V40H9.00006C8.73484 40 8.48049 40.1054 8.29295 40.2929C8.10542 40.4804 8.00006 40.7348 8.00006 41V45C8.00006 45.2652 8.10542 45.5196 8.29295 45.7071C8.48049 45.8946 8.73484 46 9.00006 46H12.0001V49C12.0001 49.2652 12.1054 49.5196 12.293 49.7071C12.4805 49.8946 12.7348 50 13.0001 50H17.0001C17.2653 50 17.5196 49.8946 17.7072 49.7071C17.8947 49.5196 18.0001 49.2652 18.0001 49V46H21.0001C21.2653 46 21.5196 45.8946 21.7072 45.7071C21.8947 45.5196 22.0001 45.2652 22.0001 45V41C22.0001 40.7348 21.8947 40.4804 21.7072 40.2929C21.5196 40.1054 21.2653 40 21.0001 40ZM20.0001 44H17.0001C16.7348 44 16.4805 44.1054 16.293 44.2929C16.1054 44.4804 16.0001 44.7348 16.0001 45V48H14.0001V45C14.0001 44.7348 13.8947 44.4804 13.7072 44.2929C13.5196 44.1054 13.2653 44 13.0001 44H10.0001V42H13.0001C13.2653 42 13.5196 41.8946 13.7072 41.7071C13.8947 41.5196 14.0001 41.2652 14.0001 41V38H16.0001V41C16.0001 41.2652 16.1054 41.5196 16.293 41.7071C16.4805 41.8946 16.7348 42 17.0001 42H20.0001V44Z" fill="black"/>
<path d="M52.0001 0H26.0001C25.2044 0 24.4413 0.316071 23.8787 0.87868C23.3161 1.44129 23.0001 2.20435 23.0001 3V14H25.0001V3C25.0001 2.73478 25.1054 2.48043 25.293 2.29289C25.4805 2.10536 25.7348 2 26.0001 2H52.0001C52.2653 2 52.5196 2.10536 52.7072 2.29289C52.8947 2.48043 53.0001 2.73478 53.0001 3V19C53.0001 19.2652 52.8947 19.5196 52.7072 19.7071C52.5196 19.8946 52.2653 20 52.0001 20H43.0001C42.7349 20.0001 42.4806 20.1054 42.2931 20.293L36.0001 26.586V21C36.0001 20.7348 35.8947 20.4804 35.7072 20.2929C35.5196 20.1054 35.2653 20 35.0001 20H31.0001V22H34.0001V29C34.0001 29.1978 34.0588 29.391 34.1687 29.5555C34.2785 29.7199 34.4347 29.848 34.6174 29.9237C34.8001 29.9993 35.0011 30.0192 35.1951 29.9806C35.389 29.942 35.5672 29.8468 35.7071 29.707L43.4141 22H52.0001C52.7957 22 53.5588 21.6839 54.1214 21.1213C54.684 20.5587 55.0001 19.7956 55.0001 19V3C55.0001 2.20435 54.684 1.44129 54.1214 0.87868C53.5588 0.316071 52.7957 0 52.0001 0Z" fill="black"/>
<path d="M39 16.657L44.6571 11C45.0285 10.6285 45.3231 10.1876 45.5242 9.70226C45.7252 9.21695 45.8287 8.69679 45.8287 8.17149C45.8287 7.64619 45.7252 7.12603 45.5242 6.64072C45.3231 6.1554 45.0285 5.71443 44.6571 5.34299C44.2856 4.97155 43.8446 4.6769 43.3593 4.47588C42.874 4.27485 42.3538 4.17139 41.8285 4.17139C41.3032 4.17139 40.7831 4.27485 40.2978 4.47588C39.8125 4.6769 39.3715 4.97155 39 5.34299L33.343 11C32.5929 11.7502 32.1714 12.7676 32.1714 13.8285C32.1714 14.8894 32.5929 15.9068 33.343 16.657C34.0932 17.4072 35.1107 17.8286 36.1716 17.8286C37.2324 17.8286 38.2499 17.4072 39 16.657ZM40.4141 6.75699C40.7892 6.38184 41.298 6.17108 41.8285 6.17108C42.3591 6.17108 42.8679 6.38184 43.243 6.75699C43.6182 7.13214 43.829 7.64095 43.829 8.17149C43.829 8.70203 43.6182 9.21084 43.243 9.58599L41.121 11.707L38.293 8.87899L40.4141 6.75699ZM34.757 12.414L36.8791 10.293L39.7071 13.121L37.586 15.243C37.4003 15.4287 37.1798 15.5761 36.9371 15.6766C36.6944 15.7772 36.4342 15.8289 36.1716 15.8289C35.9089 15.8289 35.6487 15.7772 35.406 15.6766C35.1633 15.5761 34.9428 15.4287 34.757 15.243C34.5713 15.0572 34.4239 14.8367 34.3234 14.594C34.2229 14.3513 34.1711 14.0912 34.1711 13.8285C34.1711 13.5658 34.2229 13.3057 34.3234 13.063C34.4239 12.8203 34.5713 12.5997 34.757 12.414Z" fill="black"/>
</svg>
