<svg width="60" height="34" viewBox="0 0 60 34" fill="none" xmlns="http://www.w3.org/2000/svg">
<path d="M59.707 13.293L47.293 0.879015C47.0151 0.59932 46.6844 0.377596 46.3202 0.226704C45.9559 0.0758133 45.5653 -0.00123988 45.171 1.50863e-05H11C10.2044 1.50863e-05 9.44129 0.316085 8.87868 0.878694C8.31607 1.4413 8 2.20437 8 3.00002V25C8 25.7957 8.31607 26.5587 8.87868 27.1213C9.44129 27.6839 10.2044 28 11 28H13.08C13.2983 29.5206 14.0122 30.9266 15.111 32H0V34H48C49.6815 33.9968 51.3058 33.3889 52.5762 32.2874C53.8467 31.1858 54.6786 29.6641 54.92 28H57C57.7957 28 58.5587 27.6839 59.1213 27.1213C59.6839 26.5587 60 25.7957 60 25V14C59.9999 13.7348 59.8946 13.4805 59.707 13.293ZM58 15H43V6.00002H49.586L58 14.414V15ZM15 27C15 26.0111 15.2932 25.0444 15.8427 24.2222C16.3921 23.3999 17.173 22.7591 18.0866 22.3806C19.0002 22.0022 20.0055 21.9032 20.9755 22.0961C21.9454 22.289 22.8363 22.7652 23.5355 23.4645C24.2348 24.1637 24.711 25.0547 24.9039 26.0246C25.0969 26.9945 24.9978 27.9998 24.6194 28.9134C24.241 29.8271 23.6001 30.608 22.7779 31.1574C21.9556 31.7068 20.9889 32 20 32C18.6744 31.9984 17.4036 31.4711 16.4662 30.5338C15.5289 29.5965 15.0016 28.3256 15 27ZM24.889 32C25.9878 30.9266 26.7017 29.5206 26.92 28H41.08C41.2983 29.5206 42.0122 30.9266 43.111 32H24.889ZM48 32C47.0111 32 46.0444 31.7068 45.2221 31.1574C44.3999 30.608 43.759 29.8271 43.3806 28.9134C43.0022 27.9998 42.9031 26.9945 43.0961 26.0246C43.289 25.0547 43.7652 24.1637 44.4645 23.4645C45.1637 22.7652 46.0546 22.289 47.0245 22.0961C47.9945 21.9032 48.9998 22.0022 49.9134 22.3806C50.827 22.7591 51.6079 23.3999 52.1573 24.2222C52.7068 25.0444 53 26.0111 53 27C52.9984 28.3256 52.4711 29.5965 51.5338 30.5338C50.5964 31.4711 49.3256 31.9984 48 32ZM57 26H54.92C54.6809 24.3352 53.8496 22.8123 52.5786 21.7108C51.3075 20.6092 49.6819 20.0028 48 20.0028C46.3181 20.0028 44.6925 20.6092 43.4214 21.7108C42.1504 22.8123 41.3191 24.3352 41.08 26H26.92C26.6809 24.3352 25.8496 22.8123 24.5786 21.7108C23.3075 20.6092 21.6819 20.0028 20 20.0028C18.3181 20.0028 16.6925 20.6092 15.4214 21.7108C14.1504 22.8123 13.3191 24.3352 13.08 26H11C10.7348 26 10.4804 25.8947 10.2929 25.7071C10.1054 25.5196 10 25.2652 10 25V3.00002C10 2.7348 10.1054 2.48044 10.2929 2.29291C10.4804 2.10537 10.7348 2.00002 11 2.00002H45.171C45.3025 1.99991 45.4327 2.02574 45.5542 2.07601C45.6757 2.12629 45.786 2.20003 45.879 2.29301L47.586 4.00002H43C42.4696 4.00002 41.9609 4.21073 41.5858 4.5858C41.2107 4.96088 41 5.46958 41 6.00002V15C41 15.5304 41.2107 16.0392 41.5858 16.4142C41.9609 16.7893 42.4696 17 43 17H58V25C58 25.2652 57.8946 25.5196 57.7071 25.7071C57.5196 25.8947 57.2652 26 57 26Z" fill="black"/>
<path d="M19 27C19 27.5523 19.4477 28 20 28C20.5523 28 21 27.5523 21 27C21 26.4477 20.5523 26 20 26C19.4477 26 19 26.4477 19 27Z" fill="black"/>
<path d="M47 27C47 27.5523 47.4477 28 48 28C48.5523 28 49 27.5523 49 27C49 26.4477 48.5523 26 48 26C47.4477 26 47 26.4477 47 27Z" fill="black"/>
<path d="M29.657 11L24 5.34299C23.2498 4.59283 22.2324 4.17139 21.1715 4.17139C20.1106 4.17139 19.0932 4.59283 18.343 5.34299C17.5928 6.09316 17.1714 7.1106 17.1714 8.17149C17.1714 9.23238 17.5928 10.2498 18.343 11L23.343 16H18V18H32V16H30.184C30.6799 15.2316 30.8981 14.3166 30.8023 13.4071C30.7064 12.4975 30.3023 11.6481 29.657 11ZM28.243 15.243C28.0573 15.4288 27.8367 15.5762 27.594 15.6767C27.3513 15.7773 27.0912 15.8291 26.8285 15.8291C26.5658 15.8291 26.3056 15.7773 26.0629 15.6767C25.8202 15.5762 25.5997 15.4288 25.414 15.243L23.293 13.121L26.121 10.293L28.243 12.414C28.4288 12.5997 28.5762 12.8202 28.6767 13.0629C28.7773 13.3056 28.8291 13.5658 28.8291 13.8285C28.8291 14.0912 28.7773 14.3513 28.6767 14.594C28.5762 14.8367 28.4288 15.0573 28.243 15.243ZM19.757 6.75699C19.9427 6.57119 20.1632 6.4238 20.4059 6.32324C20.6486 6.22268 20.9088 6.17092 21.1715 6.17092C21.4342 6.17092 21.6943 6.22268 21.937 6.32324C22.1797 6.4238 22.4003 6.57119 22.586 6.75699L24.707 8.87899L21.879 11.707L19.757 9.58599C19.5712 9.40026 19.4238 9.17975 19.3232 8.93704C19.2227 8.69434 19.1709 8.4342 19.1709 8.17149C19.1709 7.90878 19.2227 7.64864 19.3232 7.40594C19.4238 7.16323 19.5712 6.94272 19.757 6.75699Z" fill="black"/>
<path d="M14 17C14 17.5523 14.4477 18 15 18C15.5523 18 16 17.5523 16 17C16 16.4477 15.5523 16 15 16C14.4477 16 14 16.4477 14 17Z" fill="black"/>
<path d="M4 25C4 25.5523 4.44772 26 5 26C5.55228 26 6 25.5523 6 25C6 24.4477 5.55228 24 5 24C4.44772 24 4 24.4477 4 25Z" fill="black"/>
<path d="M0 25C0 25.5523 0.447715 26 1 26C1.55228 26 2 25.5523 2 25C2 24.4477 1.55228 24 1 24C0.447715 24 0 24.4477 0 25Z" fill="black"/>
<path d="M5 29C5 29.5523 5.44772 30 6 30C6.55228 30 7 29.5523 7 29C7 28.4477 6.55228 28 6 28C5.44772 28 5 28.4477 5 29Z" fill="black"/>
<path d="M1 29C1 29.5523 1.44772 30 2 30C2.55228 30 3 29.5523 3 29C3 28.4477 2.55228 28 2 28C1.44772 28 1 28.4477 1 29Z" fill="black"/>
</svg>
