<svg width="100" height="100" viewBox="0 0 100 100" fill="none" xmlns="http://www.w3.org/2000/svg">
<circle opacity="0.2" cx="50" cy="50" r="50" fill="#429BD7"/>
<path d="M28.5329 41.8H71.4663C71.7138 41.8 71.9512 41.7016 72.1262 41.5266C72.3013 41.3516 72.3996 41.1142 72.3996 40.8666V37.1333C72.3996 36.8857 72.3013 36.6484 72.1262 36.4733C71.9512 36.2983 71.7138 36.2 71.4663 36.2H28.5329C28.2854 36.2 28.048 36.2983 27.873 36.4733C27.6979 36.6484 27.5996 36.8857 27.5996 37.1333V40.8666C27.5996 41.1142 27.6979 41.3516 27.873 41.5266C28.048 41.7016 28.2854 41.8 28.5329 41.8ZM70.5329 39.9333H68.6663V38.0666H70.5329V39.9333ZM29.4663 38.0666H66.7996V39.9333H29.4663V38.0666Z" fill="#1C70A9"/>
<path d="M34.1335 30.6001C34.649 30.6001 35.0669 30.1822 35.0669 29.6667C35.0669 29.1513 34.649 28.7334 34.1335 28.7334C33.6181 28.7334 33.2002 29.1513 33.2002 29.6667C33.2002 30.1822 33.6181 30.6001 34.1335 30.6001Z" fill="#1C70A9"/>
<path d="M30.4001 30.6001C30.9156 30.6001 31.3335 30.1822 31.3335 29.6667C31.3335 29.1513 30.9156 28.7334 30.4001 28.7334C29.8847 28.7334 29.4668 29.1513 29.4668 29.6667C29.4668 30.1822 29.8847 30.6001 30.4001 30.6001Z" fill="#1C70A9"/>
<path d="M26.6667 30.6001C27.1822 30.6001 27.6001 30.1822 27.6001 29.6667C27.6001 29.1513 27.1822 28.7334 26.6667 28.7334C26.1513 28.7334 25.7334 29.1513 25.7334 29.6667C25.7334 30.1822 26.1513 30.6001 26.6667 30.6001Z" fill="#1C70A9"/>
<path d="M24.8 75.4H75.2C75.9423 75.3991 76.654 75.1039 77.1789 74.5789C77.7039 74.054 77.9991 73.3423 78 72.6V27.8C77.9991 27.0577 77.7039 26.346 77.1789 25.8211C76.654 25.2961 75.9423 25.0009 75.2 25H24.8C24.0577 25.0009 23.346 25.2961 22.8211 25.8211C22.2961 26.346 22.0009 27.0577 22 27.8V72.6C22.0009 73.3423 22.2961 74.054 22.8211 74.5789C23.346 75.1039 24.0577 75.3991 24.8 75.4ZM23.8667 27.8C23.8669 27.5525 23.9654 27.3153 24.1403 27.1403C24.3153 26.9654 24.5525 26.8669 24.8 26.8667H75.2C75.4474 26.8669 75.6847 26.9654 75.8597 27.1403C76.0346 27.3153 76.1331 27.5525 76.1333 27.8V32.4667H23.8667V27.8ZM23.8667 34.3333H76.1333V72.6C76.1331 72.8475 76.0346 73.0847 75.8597 73.2597C75.6847 73.4346 75.4474 73.5331 75.2 73.5333H24.8C24.5525 73.5331 24.3153 73.4346 24.1403 73.2597C23.9654 73.0847 23.8669 72.8475 23.8667 72.6V34.3333Z" fill="#1C70A9"/>
<path d="M28.5329 54.8667H33.1996V55.8001C33.1996 55.9847 33.2543 56.1651 33.3569 56.3186C33.4594 56.4721 33.6052 56.5918 33.7758 56.6624C33.9463 56.733 34.134 56.7515 34.315 56.7155C34.4961 56.6795 34.6624 56.5906 34.7929 56.4601L35.9996 55.2534L38.1396 57.3934C38.2263 57.4801 38.3292 57.5488 38.4424 57.5957C38.5557 57.6426 38.677 57.6668 38.7996 57.6668C38.9222 57.6668 39.0436 57.6426 39.1568 57.5957C39.27 57.5488 39.3729 57.4801 39.4596 57.3934L42.2596 54.5934C42.3463 54.5067 42.415 54.4038 42.4619 54.2906C42.5088 54.1774 42.533 54.056 42.533 53.9334C42.533 53.8108 42.5088 53.6895 42.4619 53.5762C42.415 53.463 42.3463 53.3601 42.2596 53.2734L40.1195 51.1334L41.3263 49.9267C41.4568 49.7962 41.5457 49.6299 41.5817 49.4488C41.6177 49.2678 41.5992 49.0801 41.5286 48.9096C41.458 48.739 41.3383 48.5933 41.1848 48.4907C41.0313 48.3881 40.8509 48.3334 40.6663 48.3334H38.7996V44.6001C38.7996 44.3525 38.7013 44.1151 38.5262 43.9401C38.3512 43.7651 38.1138 43.6667 37.8663 43.6667H28.5329C28.2854 43.6667 28.048 43.7651 27.873 43.9401C27.6979 44.1151 27.5996 44.3525 27.5996 44.6001V53.9334C27.5996 54.181 27.6979 54.4183 27.873 54.5934C28.048 54.7684 28.2854 54.8667 28.5329 54.8667ZM40.2798 53.9334L38.7996 55.4134L36.6596 53.2734C36.5729 53.1868 36.47 53.118 36.3568 53.0711C36.2436 53.0242 36.1222 53 35.9996 53C35.877 53 35.7557 53.0242 35.6424 53.0711C35.5292 53.118 35.4263 53.1868 35.3396 53.2734L35.0663 53.5468V50.2001H38.4131L38.1396 50.4734C38.053 50.5601 37.9842 50.663 37.9373 50.7762C37.8904 50.8895 37.8662 51.0108 37.8662 51.1334C37.8662 51.256 37.8904 51.3774 37.9373 51.4906C37.9842 51.6038 38.053 51.7067 38.1396 51.7934L40.2798 53.9334ZM29.4663 45.5334H36.9329V48.3334H34.1329C33.8854 48.3334 33.648 48.4317 33.473 48.6068C33.2979 48.7818 33.1996 49.0192 33.1996 49.2667V53.0001H29.4663V45.5334Z" fill="#1C70A9"/>
<path d="M28.5329 71.6666H37.8663C38.1138 71.6666 38.3512 71.5682 38.5262 71.3932C38.7013 71.2182 38.7996 70.9808 38.7996 70.7332V61.3999C38.7996 61.1524 38.7013 60.915 38.5262 60.7399C38.3512 60.5649 38.1138 60.4666 37.8663 60.4666H28.5329C28.2854 60.4666 28.048 60.5649 27.873 60.7399C27.6979 60.915 27.5996 61.1524 27.5996 61.3999V70.7332C27.5996 70.9808 27.6979 71.2182 27.873 71.3932C28.048 71.5682 28.2854 71.6666 28.5329 71.6666ZM29.4663 62.3332H36.9329V69.7999H29.4663V62.3332Z" fill="#1C70A9"/>
<path d="M55.6004 44.6001C55.6004 44.3525 55.5021 44.1151 55.327 43.9401C55.152 43.7651 54.9146 43.6667 54.6671 43.6667H45.3337C45.0862 43.6667 44.8488 43.7651 44.6738 43.9401C44.4987 44.1151 44.4004 44.3525 44.4004 44.6001V53.9334C44.4004 54.181 44.4987 54.4183 44.6738 54.5934C44.8488 54.7684 45.0862 54.8667 45.3337 54.8667H54.6671C54.9146 54.8667 55.152 54.7684 55.327 54.5934C55.5021 54.4183 55.6004 54.181 55.6004 53.9334V44.6001ZM53.7337 53.0001H46.2671V45.5334H53.7337V53.0001Z" fill="#1C70A9"/>
<path d="M71.4669 43.6667H62.1335C61.886 43.6667 61.6486 43.7651 61.4736 43.9401C61.2985 44.1151 61.2002 44.3525 61.2002 44.6001V53.9334C61.2002 54.181 61.2985 54.4183 61.4736 54.5934C61.6486 54.7684 61.886 54.8667 62.1335 54.8667H71.4669C71.7144 54.8667 71.9518 54.7684 72.1268 54.5934C72.3019 54.4183 72.4002 54.181 72.4002 53.9334V44.6001C72.4002 44.3525 72.3019 44.1151 72.1268 43.9401C71.9518 43.7651 71.7144 43.6667 71.4669 43.6667ZM70.5335 53.0001H63.0669V45.5334H70.5335V53.0001Z" fill="#1C70A9"/>
<path d="M52.5265 60.7399C52.396 60.6094 52.2297 60.5205 52.0486 60.4845C51.8676 60.4485 51.6799 60.467 51.5094 60.5376C51.3388 60.6082 51.193 60.7279 51.0905 60.8814C50.9879 61.0349 50.9332 61.2153 50.9332 61.3999V63.2666H43.4665C43.219 63.2666 42.9816 63.3649 42.8066 63.54C42.6315 63.715 42.5332 63.9524 42.5332 64.1999V67.9333C42.5332 68.1808 42.6315 68.4182 42.8066 68.5932C42.9816 68.7683 43.219 68.8666 43.4665 68.8666H50.9332V70.7333C50.9332 70.9179 50.9879 71.0983 51.0905 71.2518C51.193 71.4053 51.3388 71.5249 51.5094 71.5956C51.6799 71.6662 51.8676 71.6847 52.0486 71.6487C52.2297 71.6127 52.396 71.5238 52.5265 71.3932L57.1932 66.7266C57.2799 66.6399 57.3486 66.537 57.3955 66.4238C57.4424 66.3105 57.4666 66.1892 57.4666 66.0666C57.4666 65.944 57.4424 65.8226 57.3955 65.7094C57.3486 65.5962 57.2799 65.4933 57.1932 65.4066L52.5265 60.7399ZM52.7999 68.4798V67.9333C52.7999 67.6857 52.7015 67.4483 52.5265 67.2733C52.3515 67.0983 52.1141 66.9999 51.8665 66.9999H44.3999V65.1333H51.8665C52.1141 65.1333 52.3515 65.0349 52.5265 64.8599C52.7015 64.6849 52.7999 64.4475 52.7999 64.1999V63.6531L55.2132 66.0666L52.7999 68.4798Z" fill="#1C70A9"/>
<path d="M28.5329 58.6001H32.2663C32.5138 58.6001 32.7512 58.5017 32.9262 58.3267C33.1013 58.1517 33.1996 57.9143 33.1996 57.6667C33.1996 57.4192 33.1013 57.1818 32.9262 57.0068C32.7512 56.8317 32.5138 56.7334 32.2663 56.7334H28.5329C28.2854 56.7334 28.048 56.8317 27.873 57.0068C27.6979 57.1818 27.5996 57.4192 27.5996 57.6667C27.5996 57.9143 27.6979 58.1517 27.873 58.3267C28.048 58.5017 28.2854 58.6001 28.5329 58.6001Z" fill="#1C70A9"/>
<path d="M45.3337 58.6001H49.0671C49.3146 58.6001 49.552 58.5017 49.727 58.3267C49.9021 58.1517 50.0004 57.9143 50.0004 57.6667C50.0004 57.4192 49.9021 57.1818 49.727 57.0068C49.552 56.8317 49.3146 56.7334 49.0671 56.7334H45.3337C45.0862 56.7334 44.8488 56.8317 44.6738 57.0068C44.4987 57.1818 44.4004 57.4192 44.4004 57.6667C44.4004 57.9143 44.4987 58.1517 44.6738 58.3267C44.8488 58.5017 45.0862 58.6001 45.3337 58.6001Z" fill="#1C70A9"/>
<path d="M62.1335 58.6001H65.8669C66.1144 58.6001 66.3518 58.5017 66.5268 58.3267C66.7019 58.1517 66.8002 57.9143 66.8002 57.6667C66.8002 57.4192 66.7019 57.1818 66.5268 57.0068C66.3518 56.8317 66.1144 56.7334 65.8669 56.7334H62.1335C61.886 56.7334 61.6486 56.8317 61.4736 57.0068C61.2985 57.1818 61.2002 57.4192 61.2002 57.6667C61.2002 57.9143 61.2985 58.1517 61.4736 58.3267C61.6486 58.5017 61.886 58.6001 62.1335 58.6001Z" fill="#1C70A9"/>
<path d="M54.6672 56.7334H52.8005C52.553 56.7334 52.3156 56.8317 52.1406 57.0068C51.9655 57.1818 51.8672 57.4192 51.8672 57.6667C51.8672 57.9143 51.9655 58.1517 52.1406 58.3267C52.3156 58.5017 52.553 58.6001 52.8005 58.6001H54.6672C54.9147 58.6001 55.1521 58.5017 55.3272 58.3267C55.5022 58.1517 55.6005 57.9143 55.6005 57.6667C55.6005 57.4192 55.5022 57.1818 55.3272 57.0068C55.1521 56.8317 54.9147 56.7334 54.6672 56.7334Z" fill="#1C70A9"/>
<path d="M71.467 56.7334H69.6003C69.3528 56.7334 69.1154 56.8317 68.9404 57.0068C68.7653 57.1818 68.667 57.4192 68.667 57.6667C68.667 57.9143 68.7653 58.1517 68.9404 58.3267C69.1154 58.5017 69.3528 58.6001 69.6003 58.6001H71.467C71.7145 58.6001 71.9519 58.5017 72.127 58.3267C72.302 58.1517 72.4003 57.9143 72.4003 57.6667C72.4003 57.4192 72.302 57.1818 72.127 57.0068C71.9519 56.8317 71.7145 56.7334 71.467 56.7334Z" fill="#1C70A9"/>
<path d="M67.7331 71.6667C68.2486 71.6667 68.6665 71.2488 68.6665 70.7334C68.6665 70.2179 68.2486 69.8 67.7331 69.8C67.2177 69.8 66.7998 70.2179 66.7998 70.7334C66.7998 71.2488 67.2177 71.6667 67.7331 71.6667Z" fill="#1C70A9"/>
<path d="M63.9997 71.6667C64.5152 71.6667 64.9331 71.2488 64.9331 70.7334C64.9331 70.2179 64.5152 69.8 63.9997 69.8C63.4843 69.8 63.0664 70.2179 63.0664 70.7334C63.0664 71.2488 63.4843 71.6667 63.9997 71.6667Z" fill="#1C70A9"/>
<path d="M71.4668 61.3999H70.5335C70.3376 61.3999 70.1467 61.4615 69.9877 61.576C69.8288 61.6906 69.71 61.8522 69.648 62.0381L68.9275 64.1999H62.1335C61.9917 64.1999 61.8517 64.2322 61.7242 64.2944C61.5968 64.3566 61.4852 64.4471 61.3979 64.5588C61.3106 64.6706 61.2499 64.8009 61.2205 64.9396C61.1911 65.0783 61.1937 65.222 61.2281 65.3596L62.1614 69.0929C62.2119 69.2948 62.3284 69.4741 62.4925 69.6022C62.6565 69.7303 62.8587 69.7999 63.0668 69.7999H68.6668C68.875 69.7999 69.0772 69.7303 69.2412 69.6022C69.4053 69.4741 69.5218 69.2948 69.5723 69.0929L70.4966 65.3954L71.2062 63.2666H71.4668C71.7144 63.2666 71.9518 63.1682 72.1268 62.9932C72.3018 62.8182 72.4002 62.5808 72.4002 62.3332C72.4002 62.0857 72.3018 61.8483 72.1268 61.6733C71.9518 61.4982 71.7144 61.3999 71.4668 61.3999ZM67.9381 67.9332H63.7955L63.3289 66.0666H68.4048L67.9381 67.9332Z" fill="#1C70A9"/>
</svg>
