<svg width="100" height="100" viewBox="0 0 100 100" fill="none" xmlns="http://www.w3.org/2000/svg">
<circle opacity="0.2" cx="50" cy="50" r="50" fill="#7856BA"/>
<path d="M76 24.8667C76 24.6368 75.9087 24.4164 75.7462 24.2538C75.5836 24.0913 75.3632 24 75.1333 24H38.7201C37.9854 24.0208 37.2638 24.2001 36.6048 24.5255C35.1831 25.239 34.4 26.5913 34.4 28.3333V43.0667H33.5333C33.3035 43.0667 33.083 43.158 32.9205 43.3205C32.758 43.483 32.6667 43.7035 32.6667 43.9333V48.2667H30.9333C30.7569 48.2667 30.5847 48.3205 30.4397 48.421C30.2947 48.5215 30.1839 48.6638 30.1219 48.829L27.5879 55.5863L24.2538 58.9205C24.1733 59.001 24.1095 59.0965 24.066 59.2017C24.0224 59.3068 24 59.4195 24 59.5333V64.7333C24 64.9632 24.0913 65.1836 24.2538 65.3462C24.4164 65.5087 24.6368 65.6 24.8667 65.6H25.7333C25.7333 66.5194 26.0986 67.4012 26.7487 68.0513C27.3988 68.7014 28.2806 69.0667 29.2 69.0667C30.1194 69.0667 31.0012 68.7014 31.6513 68.0513C32.3014 67.4012 32.6667 66.5194 32.6667 65.6H34.4V70.8H28.3333C28.1078 70.7999 27.8912 70.8877 27.7294 71.0447C27.5676 71.2018 27.4733 71.4157 27.4667 71.6411C27.4643 71.7189 27.4245 73.5633 28.6629 74.8387C29.4104 75.6094 30.4319 76 31.6972 76H68.2V75.9966C71.4927 75.9255 72.4458 73.162 72.4866 71.6907C72.4866 71.6831 72.4866 71.6757 72.4866 71.6683L72.5051 61.408C73.3346 60.6037 73.9945 59.6413 74.4459 58.5776C74.8972 57.5139 75.1308 56.3706 75.1328 55.2151C75.1348 54.0596 74.9052 52.9155 74.4576 51.8502C74.01 50.785 73.3535 49.8202 72.5267 49.013L72.5376 43.0667V37.8667H75.1333C75.3632 37.8667 75.5836 37.7754 75.7462 37.6128C75.9087 37.4503 76 37.2299 76 37V24.873C76 24.8709 76 24.8688 76 24.8667ZM53.4667 44.8V58.6667H34.4V44.8H53.4667ZM31.5339 50H32.6667V55.2H29.5838L31.5339 50ZM29.2 67.3333C28.8572 67.3333 28.5221 67.2317 28.237 67.0412C27.952 66.8508 27.7298 66.58 27.5986 66.2633C27.4674 65.9466 27.4331 65.5981 27.5 65.2618C27.5669 64.9256 27.7319 64.6168 27.9743 64.3743C28.2168 64.1319 28.5256 63.9669 28.8618 63.9C29.1981 63.8331 29.5466 63.8674 29.8633 63.9986C30.18 64.1298 30.4508 64.352 30.6412 64.637C30.8317 64.9221 30.9333 65.2572 30.9333 65.6C30.9328 66.0595 30.75 66.5001 30.425 66.8251C30.1001 67.15 29.6595 67.3328 29.2 67.3333ZM32.2008 63.8667C31.897 63.3397 31.4597 62.9021 30.933 62.5978C30.4064 62.2935 29.8088 62.1333 29.2005 62.1333C28.5923 62.1333 27.9947 62.2935 27.468 62.5978C26.9413 62.9021 26.5041 63.3397 26.2003 63.8667H25.7333V59.8922L28.6922 56.9333H32.6667V63.8667H32.2008ZM34.4 60.4H53.4667V63.8667H52.1342C51.8303 63.3397 51.3931 62.9021 50.8664 62.5978C50.3397 62.2935 49.7421 62.1333 49.1339 62.1333C48.5256 62.1333 47.9281 62.2935 47.4014 62.5978C46.8747 62.9021 46.4374 63.3397 46.1336 63.8667H34.4V60.4ZM50.8667 65.6C50.8667 65.9428 50.765 66.2779 50.5745 66.563C50.3841 66.848 50.1134 67.0702 49.7967 67.2014C49.4799 67.3326 49.1314 67.3669 48.7952 67.3C48.4589 67.2331 48.1501 67.0681 47.9077 66.8257C47.6653 66.5832 47.5002 66.2744 47.4333 65.9382C47.3664 65.6019 47.4008 65.2534 47.5319 64.9367C47.6631 64.62 47.8853 64.3492 48.1703 64.1588C48.4554 63.9683 48.7905 63.8667 49.1333 63.8667C49.5929 63.8672 50.0334 64.05 50.3584 64.375C50.6833 64.6999 50.8661 65.1405 50.8667 65.6ZM29.915 73.6391C29.6252 73.3274 29.4201 72.9467 29.3192 72.5333H63.85C63.936 72.9677 64.0786 73.389 64.274 73.7863C64.3568 73.9524 64.4505 74.1129 64.5544 74.2667H31.6979C30.9129 74.2667 30.3295 74.0614 29.915 73.6391ZM73.4 55.2C73.4 56.5713 72.9934 57.9118 72.2315 59.052C71.4697 60.1921 70.3868 61.0808 69.1199 61.6056C67.853 62.1303 66.459 62.2676 65.114 62.0001C63.7691 61.7326 62.5337 61.0723 61.5641 60.1026C60.5944 59.133 59.9341 57.8976 59.6666 56.5526C59.399 55.2077 59.5363 53.8136 60.0611 52.5467C60.5859 51.2798 61.4745 50.197 62.6147 49.4351C63.7549 48.6733 65.0954 48.2667 66.4667 48.2667C68.3049 48.2687 70.0672 48.9999 71.367 50.2997C72.6668 51.5995 73.3979 53.3618 73.4 55.2ZM66.4667 46.5333C65.138 46.5321 63.8269 46.8363 62.6346 47.4225C61.4423 48.0088 60.4008 48.8613 59.5904 49.9142C58.7801 50.9671 58.2227 52.1922 57.9613 53.4948C57.6999 54.7975 57.7415 56.1428 58.0828 57.4268C58.4242 58.7108 59.0562 59.8991 59.9301 60.9C60.8039 61.9008 61.8961 62.6873 63.1223 63.1988C64.3486 63.7102 65.676 63.9329 67.002 63.8496C68.328 63.7663 69.6171 63.3792 70.7697 62.7183L70.7536 71.6486C70.7157 72.1184 70.5866 72.5764 70.3735 72.9968C69.9242 73.8513 69.171 74.2668 68.0713 74.2668C66.9988 74.2668 66.2715 73.8713 65.8479 73.0576C65.6318 72.6241 65.5082 72.1504 65.4848 71.6667C65.4848 71.4368 65.3935 71.2164 65.231 71.0538C65.0685 70.8913 64.848 70.8 64.6182 70.8H36.1333V65.6H45.6667C45.6667 66.5194 46.0319 67.4012 46.682 68.0513C47.3322 68.7014 48.2139 69.0667 49.1333 69.0667C50.0528 69.0667 50.9345 68.7014 51.5846 68.0513C52.2348 67.4012 52.6 66.5194 52.6 65.6H54.3333C54.5632 65.6 54.7836 65.5087 54.9462 65.3462C55.1087 65.1836 55.2 64.9632 55.2 64.7333V43.9333C55.2 43.7035 55.1087 43.483 54.9462 43.3205C54.7836 43.158 54.5632 43.0667 54.3333 43.0667H36.1333V28.3333C36.1333 27.2542 36.5273 26.5228 37.3379 26.0971C37.7682 25.8808 38.239 25.7569 38.7201 25.7333H71.6726C71.1084 26.4826 70.8037 27.3954 70.8048 28.3333V43.065L70.7964 47.6973C69.4813 46.9337 67.9874 46.5321 66.4667 46.5333ZM72.5381 36.1333V28.3333C72.5385 27.7965 72.7048 27.273 73.0143 26.8344C73.3237 26.3958 73.7611 26.0635 74.2667 25.883V36.1333H72.5381Z" fill="#6342A4"/>
<path d="M69.321 51.9872L64.7338 56.5745L63.6133 55.4539C63.4508 55.2914 63.2303 55.2001 63.0005 55.2001C62.7706 55.2001 62.5502 55.2914 62.3876 55.4539C62.2251 55.6164 62.1338 55.8369 62.1338 56.0668C62.1338 56.2966 62.2251 56.5171 62.3876 56.6796L64.121 58.4129C64.2014 58.4934 64.297 58.5573 64.4021 58.6008C64.5073 58.6444 64.62 58.6668 64.7338 58.6668C64.8476 58.6668 64.9603 58.6444 65.0655 58.6008C65.1706 58.5573 65.2662 58.4934 65.3467 58.4129L70.5467 53.2129C70.7092 53.0504 70.8005 52.8299 70.8005 52.6001C70.8005 52.3702 70.7092 52.1498 70.5467 51.9872C70.3841 51.8247 70.1637 51.7334 69.9338 51.7334C69.704 51.7334 69.4835 51.8247 69.321 51.9872Z" fill="#6342A4"/>
<path d="M38.7329 56.9334H49.1329C49.3627 56.9334 49.5832 56.8421 49.7457 56.6796C49.9082 56.5171 49.9995 56.2966 49.9995 56.0668V47.4001C49.9995 47.1703 49.9082 46.9498 49.7457 46.7873C49.5832 46.6248 49.3627 46.5334 49.1329 46.5334H38.7329C38.503 46.5334 38.2826 46.6248 38.1201 46.7873C37.9575 46.9498 37.8662 47.1703 37.8662 47.4001V56.0668C37.8662 56.2966 37.9575 56.5171 38.1201 56.6796C38.2826 56.8421 38.503 56.9334 38.7329 56.9334ZM39.5995 55.2001V51.7334H41.3329V52.6001C41.3329 52.7478 41.3707 52.8931 41.4426 53.0221C41.5145 53.1512 41.6183 53.2597 41.7439 53.3373C41.8696 53.415 42.013 53.4592 42.1606 53.4659C42.3082 53.4725 42.455 53.4413 42.5872 53.3752L43.9329 52.7024L45.2786 53.3752C45.4107 53.4413 45.5576 53.4725 45.7051 53.4659C45.8527 53.4592 45.9961 53.415 46.1218 53.3373C46.2475 53.2597 46.3512 53.1512 46.4232 53.0221C46.4951 52.8931 46.5329 52.7478 46.5329 52.6001V51.7334H48.2662V55.2001H39.5995ZM43.0662 48.2668H44.7995V51.1978L44.3205 50.9583C44.2001 50.8981 44.0674 50.8668 43.9329 50.8668C43.7983 50.8668 43.6656 50.8981 43.5453 50.9583L43.0662 51.1978V48.2668ZM48.2662 50.0001H46.5329V48.2668H48.2662V50.0001ZM41.3329 48.2668V50.0001H39.5995V48.2668H41.3329Z" fill="#6342A4"/>
<path d="M62.1329 29.2C61.5955 29.2006 61.0714 29.3676 60.6326 29.6779C60.1938 29.9883 59.8617 30.4268 59.682 30.9333H55.9172C55.7378 30.4266 55.4058 29.988 54.9669 29.6778C54.528 29.3676 54.0037 29.201 53.4663 29.201C52.9288 29.201 52.4045 29.3676 51.9656 29.6778C51.5267 29.988 51.1947 30.4266 51.0153 30.9333H47.2505C47.0461 30.355 46.6438 29.8677 46.1148 29.5573C45.5857 29.247 44.9641 29.1337 44.3596 29.2374C43.7551 29.3411 43.2067 29.6552 42.8114 30.1241C42.416 30.593 42.1992 31.1866 42.1992 31.8C42.1992 32.4133 42.416 33.0069 42.8114 33.4758C43.2067 33.9447 43.7551 34.2588 44.3596 34.3625C44.9641 34.4662 45.5857 34.3529 46.1148 34.0426C46.6438 33.7322 47.0461 33.2449 47.2505 32.6666H51.0153C51.1947 33.1733 51.5267 33.6119 51.9656 33.9221C52.4045 34.2323 52.9288 34.3989 53.4663 34.3989C54.0037 34.3989 54.528 34.2323 54.9669 33.9221C55.4058 33.6119 55.7378 33.1733 55.9172 32.6666H59.682C59.8409 33.116 60.1203 33.5131 60.4896 33.8145C60.8589 34.1158 61.304 34.3098 61.7762 34.3753C62.2483 34.4408 62.7294 34.3752 63.1668 34.1857C63.6042 33.9962 63.9811 33.6901 64.2563 33.3009C64.5315 32.9117 64.6944 32.4543 64.7271 31.9788C64.7599 31.5032 64.6613 31.0278 64.4422 30.6045C64.223 30.1812 63.8917 29.8263 63.4844 29.5786C63.0771 29.3309 62.6096 29.1999 62.1329 29.2ZM44.7996 32.6666C44.6282 32.6666 44.4606 32.6158 44.3181 32.5206C44.1756 32.4253 44.0645 32.29 43.9989 32.1316C43.9333 31.9733 43.9161 31.799 43.9496 31.6309C43.983 31.4628 44.0656 31.3083 44.1868 31.1871C44.308 31.0659 44.4624 30.9834 44.6305 30.9499C44.7986 30.9165 44.9729 30.9337 45.1312 30.9993C45.2896 31.0649 45.425 31.1759 45.5202 31.3185C45.6154 31.461 45.6663 31.6285 45.6663 31.8C45.666 32.0297 45.5746 32.25 45.4121 32.4125C45.2497 32.575 45.0294 32.6664 44.7996 32.6666ZM53.4663 32.6666C53.2948 32.6666 53.1273 32.6158 52.9848 32.5206C52.8422 32.4253 52.7312 32.29 52.6656 32.1316C52.6 31.9733 52.5828 31.799 52.6162 31.6309C52.6497 31.4628 52.7322 31.3083 52.8534 31.1871C52.9746 31.0659 53.1291 30.9834 53.2972 30.9499C53.4653 30.9165 53.6396 30.9337 53.7979 30.9993C53.9563 31.0649 54.0916 31.1759 54.1869 31.3185C54.2821 31.461 54.3329 31.6285 54.3329 31.8C54.3327 32.0297 54.2413 32.25 54.0788 32.4125C53.9163 32.575 53.696 32.6664 53.4663 32.6666ZM62.1329 32.6666C61.9615 32.6666 61.794 32.6158 61.6514 32.5206C61.5089 32.4253 61.3978 32.29 61.3322 32.1316C61.2666 31.9733 61.2495 31.799 61.2829 31.6309C61.3163 31.4628 61.3989 31.3083 61.5201 31.1871C61.6413 31.0659 61.7957 30.9834 61.9638 30.9499C62.132 30.9165 62.3062 30.9337 62.4646 30.9993C62.6229 31.0649 62.7583 31.1759 62.8535 31.3185C62.9488 31.461 62.9996 31.6285 62.9996 31.8C62.9993 32.0297 62.9079 32.25 62.7455 32.4125C62.583 32.575 62.3627 32.6664 62.1329 32.6666Z" fill="#6342A4"/>
<path d="M46.5335 37H43.0669C42.837 37 42.6166 37.0913 42.454 37.2538C42.2915 37.4164 42.2002 37.6368 42.2002 37.8667C42.2002 38.0965 42.2915 38.317 42.454 38.4795C42.6166 38.642 42.837 38.7333 43.0669 38.7333H46.5335C46.7634 38.7333 46.9838 38.642 47.1464 38.4795C47.3089 38.317 47.4002 38.0965 47.4002 37.8667C47.4002 37.6368 47.3089 37.4164 47.1464 37.2538C46.9838 37.0913 46.7634 37 46.5335 37Z" fill="#6342A4"/>
<path d="M55.1995 37H51.7329C51.503 37 51.2826 37.0913 51.1201 37.2538C50.9575 37.4164 50.8662 37.6368 50.8662 37.8667C50.8662 38.0965 50.9575 38.317 51.1201 38.4795C51.2826 38.642 51.503 38.7333 51.7329 38.7333H55.1995C55.4294 38.7333 55.6498 38.642 55.8124 38.4795C55.9749 38.317 56.0662 38.0965 56.0662 37.8667C56.0662 37.6368 55.9749 37.4164 55.8124 37.2538C55.6498 37.0913 55.4294 37 55.1995 37Z" fill="#6342A4"/>
<path d="M63.8665 37H60.3999C60.17 37 59.9496 37.0913 59.787 37.2538C59.6245 37.4164 59.5332 37.6368 59.5332 37.8667C59.5332 38.0965 59.6245 38.317 59.787 38.4795C59.9496 38.642 60.17 38.7333 60.3999 38.7333H63.8665C64.0964 38.7333 64.3168 38.642 64.4794 38.4795C64.6419 38.317 64.7332 38.0965 64.7332 37.8667C64.7332 37.6368 64.6419 37.4164 64.4794 37.2538C64.3168 37.0913 64.0964 37 63.8665 37Z" fill="#6342A4"/>
<path d="M30.0669 60.4001C30.5455 60.4001 30.9335 60.0121 30.9335 59.5334C30.9335 59.0548 30.5455 58.6667 30.0669 58.6667C29.5882 58.6667 29.2002 59.0548 29.2002 59.5334C29.2002 60.0121 29.5882 60.4001 30.0669 60.4001Z" fill="#6342A4"/>
</svg>
