<svg width="100" height="100" viewBox="0 0 100 100" fill="none" xmlns="http://www.w3.org/2000/svg">
<circle opacity="0.2" cx="50" cy="50" r="50" fill="#94C5BC"/>
<path d="M24.8966 40.3448V68.1379C24.8979 69.3264 25.3706 70.4659 26.211 71.3062C27.0514 72.1466 28.1908 72.6194 29.3793 72.6207H41.6793L40.1647 78.6791C40.1317 78.8113 40.1292 78.9493 40.1575 79.0826C40.1857 79.2158 40.244 79.3409 40.3278 79.4483C40.4117 79.5557 40.5189 79.6426 40.6413 79.7023C40.7638 79.762 40.8982 79.7931 41.0345 79.7931H58.9655C59.1018 79.7931 59.2362 79.762 59.3587 79.7023C59.4811 79.6426 59.5883 79.5557 59.6722 79.4483C59.756 79.3409 59.8143 79.2158 59.8425 79.0826C59.8708 78.9493 59.8683 78.8113 59.8353 78.6791L58.3207 72.6207H70.6207C71.8092 72.6194 72.9486 72.1466 73.789 71.3062C74.6294 70.4659 75.1021 69.3264 75.1034 68.1379V40.3448H75.101C75.6854 39.57 76.001 38.6257 76 37.6552V35.8621H75.9993C75.9996 35.6524 75.9263 35.4493 75.7922 35.2881L71.5172 30.1578V28.6897C71.5164 27.9766 71.2328 27.2929 70.7286 26.7887C70.2243 26.2844 69.5407 26.0008 68.8276 26H31.1724C30.4593 26.0008 29.7757 26.2844 29.2714 26.7887C28.7672 27.2929 28.4836 27.9766 28.4828 28.6897V30.1578L24.2078 35.2881C24.0737 35.4493 24.0004 35.6524 24.0007 35.8621H24V37.6552C23.999 38.6257 24.3146 39.57 24.899 40.3448H24.8966ZM57.8173 78H42.1827L43.5276 72.6207H56.4724L57.8173 78ZM73.3103 68.1379C73.3095 68.851 73.0259 69.5347 72.5217 70.0389C72.0174 70.5432 71.3338 70.8268 70.6207 70.8276H29.3793C28.6662 70.8268 27.9826 70.5432 27.4783 70.0389C26.9741 69.5347 26.6905 68.851 26.6897 68.1379V65.4483H73.3103V68.1379ZM45.5172 51.1034H46.4138V52C46.4138 52.2378 46.5083 52.4658 46.6764 52.634C46.8445 52.8021 47.0726 52.8965 47.3103 52.8965C47.5481 52.8965 47.7762 52.8021 47.9443 52.634C48.1124 52.4658 48.2069 52.2378 48.2069 52V51.1034H51.7931V52C51.7931 52.2378 51.8876 52.4658 52.0557 52.634C52.2238 52.8021 52.4519 52.8965 52.6897 52.8965C52.9274 52.8965 53.1555 52.8021 53.3236 52.634C53.4918 52.4658 53.5862 52.2378 53.5862 52V51.1034H54.5879L56.1568 63.6552H43.8432L45.4121 51.1034H45.5172ZM51.7931 49.3103H48.2069V47.5172C48.2069 47.0417 48.3958 46.5856 48.7321 46.2493C49.0684 45.9131 49.5244 45.7241 50 45.7241C50.4756 45.7241 50.9316 45.9131 51.2679 46.2493C51.6042 46.5856 51.7931 47.0417 51.7931 47.5172V49.3103ZM57.9638 63.6552L56.619 52.8965H59.8621V53.7931C59.8621 54.0309 59.9565 54.2589 60.1247 54.4271C60.2928 54.5952 60.5208 54.6897 60.7586 54.6897C60.9964 54.6897 61.2244 54.5952 61.3926 54.4271C61.5607 54.2589 61.6552 54.0309 61.6552 53.7931V52.8965H62.6707L64.2077 63.6552H57.9638ZM56.3949 51.1034L56.3376 50.6446C56.4489 50.2238 56.7095 49.8578 57.0709 49.615C57.4323 49.3723 57.8697 49.2694 58.3014 49.3256C58.7331 49.3818 59.1296 49.5932 59.4168 49.9204C59.704 50.2476 59.8623 50.6681 59.8621 51.1034H56.3949ZM43.6051 51.1034H40.1379C40.1377 50.6681 40.296 50.2476 40.5832 49.9204C40.8704 49.5932 41.2669 49.3818 41.6986 49.3256C42.1303 49.2694 42.5677 49.3723 42.9291 49.615C43.2905 49.8578 43.5511 50.2238 43.6624 50.6446L43.6051 51.1034ZM38.3448 53.7931C38.3448 54.0309 38.4393 54.2589 38.6074 54.4271C38.7756 54.5952 39.0036 54.6897 39.2414 54.6897C39.4792 54.6897 39.7072 54.5952 39.8753 54.4271C40.0435 54.2589 40.1379 54.0309 40.1379 53.7931V52.8965H43.381L42.0362 63.6552H35.7923L37.3293 52.8965H38.3448V53.7931ZM66.019 63.6552L64.3359 51.8732C64.3054 51.6596 64.1988 51.4641 64.0357 51.3227C63.8727 51.1813 63.6641 51.1034 63.4483 51.1034H61.6552C61.6554 50.3141 61.3952 49.5468 60.9148 48.9205C60.4344 48.2942 59.7607 47.8439 58.9983 47.6396C58.2359 47.4352 57.4274 47.4882 56.6981 47.7903C55.9689 48.0924 55.3598 48.6267 54.9652 49.3103H53.5862V47.5172C53.5862 46.5661 53.2084 45.654 52.5358 44.9814C51.8633 44.3089 50.9511 43.931 50 43.931C49.0489 43.931 48.1367 44.3089 47.4642 44.9814C46.7916 45.654 46.4138 46.5661 46.4138 47.5172V49.3103H45.0353C44.6409 48.6264 44.0318 48.0918 43.3024 47.7895C42.5731 47.4873 41.7643 47.4342 41.0018 47.6386C40.2392 47.8429 39.5654 48.2933 39.0849 48.9199C38.6045 49.5464 38.3444 50.3139 38.3448 51.1034H36.5517C36.3359 51.1034 36.1273 51.1813 35.9643 51.3227C35.8012 51.4641 35.6947 51.6596 35.6641 51.8732L33.981 63.6552H26.6897V41.7625C27.6151 42.1675 28.6503 42.2475 29.6269 41.9895C30.6036 41.7316 31.4642 41.1508 32.069 40.3417C32.4859 40.8993 33.0272 41.352 33.6497 41.6638C34.2723 41.9756 34.9589 42.1379 35.6552 42.1379C36.3514 42.1379 37.0381 41.9756 37.6606 41.6638C38.2832 41.352 38.8244 40.8993 39.2414 40.3417C39.6584 40.8993 40.1996 41.352 40.8221 41.6638C41.4447 41.9756 42.1313 42.1379 42.8276 42.1379C43.5238 42.1379 44.2105 41.9756 44.833 41.6638C45.4556 41.352 45.9968 40.8993 46.4138 40.3417C46.8308 40.8993 47.372 41.352 47.9945 41.6638C48.6171 41.9756 49.3037 42.1379 50 42.1379C50.6963 42.1379 51.3829 41.9756 52.0055 41.6638C52.628 41.352 53.1692 40.8993 53.5862 40.3417C54.0032 40.8993 54.5444 41.352 55.167 41.6638C55.7895 41.9756 56.4762 42.1379 57.1724 42.1379C57.8687 42.1379 58.5553 41.9756 59.1779 41.6638C59.8004 41.352 60.3416 40.8993 60.7586 40.3417C61.1756 40.8993 61.7168 41.352 62.3394 41.6638C62.9619 41.9756 63.6486 42.1379 64.3448 42.1379C65.0411 42.1379 65.7278 41.9756 66.3503 41.6638C66.9728 41.352 67.5141 40.8993 67.931 40.3417C68.5358 41.1508 69.3964 41.7316 70.3731 41.9895C71.3497 42.2475 72.3849 42.1675 73.3103 41.7625V63.6552H66.019ZM25.7931 36.7586H31.1724V37.6552C31.1724 38.3685 30.889 39.0526 30.3846 39.557C29.8802 40.0615 29.1961 40.3448 28.4828 40.3448C27.7694 40.3448 27.0853 40.0615 26.5809 39.557C26.0765 39.0526 25.7931 38.3685 25.7931 37.6552V36.7586ZM68.8276 36.7586H74.2069V37.6552C74.2069 38.3685 73.9235 39.0526 73.4191 39.557C72.9147 40.0615 72.2306 40.3448 71.5172 40.3448C70.8039 40.3448 70.1198 40.0615 69.6154 39.557C69.111 39.0526 68.8276 38.3685 68.8276 37.6552V36.7586ZM61.6552 36.7586H67.0345V37.6552C67.0345 38.3685 66.7511 39.0526 66.2467 39.557C65.7423 40.0615 65.0582 40.3448 64.3448 40.3448C63.6315 40.3448 62.9474 40.0615 62.443 39.557C61.9385 39.0526 61.6552 38.3685 61.6552 37.6552V36.7586ZM54.4828 36.7586H59.8621V37.6552C59.8621 38.3685 59.5787 39.0526 59.0743 39.557C58.5699 40.0615 57.8858 40.3448 57.1724 40.3448C56.4591 40.3448 55.775 40.0615 55.2705 39.557C54.7661 39.0526 54.4828 38.3685 54.4828 37.6552V36.7586ZM47.3103 36.7586H52.6897V37.6552C52.6897 38.3685 52.4063 39.0526 51.9019 39.557C51.3975 40.0615 50.7133 40.3448 50 40.3448C49.2867 40.3448 48.6025 40.0615 48.0981 39.557C47.5937 39.0526 47.3103 38.3685 47.3103 37.6552V36.7586ZM40.1379 36.7586H45.5172V37.6552C45.5172 38.3685 45.2339 39.0526 44.7295 39.557C44.2251 40.0615 43.5409 40.3448 42.8276 40.3448C42.1142 40.3448 41.4301 40.0615 40.9257 39.557C40.4213 39.0526 40.1379 38.3685 40.1379 37.6552V36.7586ZM32.9655 36.7586H38.3448V37.6552C38.3448 38.3685 38.0615 39.0526 37.557 39.557C37.0526 40.0615 36.3685 40.3448 35.6552 40.3448C34.9418 40.3448 34.2577 40.0615 33.7533 39.557C33.2489 39.0526 32.9655 38.3685 32.9655 37.6552V36.7586ZM31.1724 27.7931H68.8276C69.0653 27.7934 69.2932 27.8879 69.4613 28.056C69.6293 28.2241 69.7239 28.452 69.7241 28.6897V29.5862H30.2759V28.6897C30.2761 28.452 30.3707 28.2241 30.5388 28.056C30.7068 27.8879 30.9347 27.7934 31.1724 27.7931ZM29.7992 31.3793H70.2008L73.1893 34.9655H26.8107L29.7992 31.3793Z" fill="#249C86"/>
<path d="M60.7589 58.2758C61.254 58.2758 61.6554 57.8744 61.6554 57.3792C61.6554 56.8841 61.254 56.4827 60.7589 56.4827C60.2637 56.4827 59.8623 56.8841 59.8623 57.3792C59.8623 57.8744 60.2637 58.2758 60.7589 58.2758Z" fill="#249C86"/>
<path d="M52.6895 56.4828C53.1847 56.4828 53.5861 56.0814 53.5861 55.5862C53.5861 55.0911 53.1847 54.6897 52.6895 54.6897C52.1944 54.6897 51.793 55.0911 51.793 55.5862C51.793 56.0814 52.1944 56.4828 52.6895 56.4828Z" fill="#249C86"/>
<path d="M47.3106 56.4828C47.8058 56.4828 48.2072 56.0814 48.2072 55.5862C48.2072 55.0911 47.8058 54.6897 47.3106 54.6897C46.8155 54.6897 46.4141 55.0911 46.4141 55.5862C46.4141 56.0814 46.8155 56.4828 47.3106 56.4828Z" fill="#249C86"/>
<path d="M39.2413 58.2758C39.7364 58.2758 40.1378 57.8744 40.1378 57.3792C40.1378 56.8841 39.7364 56.4827 39.2413 56.4827C38.7461 56.4827 38.3447 56.8841 38.3447 57.3792C38.3447 57.8744 38.7461 58.2758 39.2413 58.2758Z" fill="#249C86"/>
<path d="M50.8967 67.2415H49.1036C48.8658 67.2415 48.6378 67.3359 48.4696 67.504C48.3015 67.6722 48.207 67.9002 48.207 68.138C48.207 68.3758 48.3015 68.6038 48.4696 68.772C48.6378 68.9401 48.8658 69.0346 49.1036 69.0346H50.8967C51.1345 69.0346 51.3625 68.9401 51.5306 68.772C51.6988 68.6038 51.7932 68.3758 51.7932 68.138C51.7932 67.9002 51.6988 67.6722 51.5306 67.504C51.3625 67.3359 51.1345 67.2415 50.8967 67.2415Z" fill="#249C86"/>
</svg>
