<svg width="100" height="100" viewBox="0 0 100 100" fill="none" xmlns="http://www.w3.org/2000/svg">
<circle opacity="0.2" cx="50" cy="50" r="50" fill="#F5B846"/>
<path d="M36.9999 55.4664H56.0664C57.2378 55.4675 58.4039 55.3101 59.5331 54.9986V56.007C58.5383 56.178 57.6516 56.7357 57.0668 57.5584C56.4123 58.4627 56.0664 59.698 56.0664 61.1306V66.3306C56.0664 66.4817 56.1059 66.6302 56.181 66.7613L58.6664 71.1008V77.1329C58.6664 77.3627 58.7577 77.5831 58.9202 77.7457C59.0828 77.9082 59.3032 77.9995 59.5331 77.9995H72.533C72.7628 77.9995 72.9832 77.9082 73.1458 77.7457C73.3083 77.5831 73.3996 77.3627 73.3996 77.1329V71.2504L75.0808 66.6273C75.1153 66.5324 75.1329 66.4321 75.1329 66.3311V55.4664C75.133 55.0504 75.0332 54.6405 74.842 54.2711C74.6508 53.9017 74.3737 53.5835 74.0341 53.3434C73.6945 53.1032 73.3022 52.948 72.8902 52.8909C72.4782 52.8337 72.0585 52.8762 71.6663 53.0149V52.8664C71.6665 52.4123 71.5477 51.9661 71.3217 51.5723C71.0958 51.1784 70.7707 50.8506 70.3787 50.6215C69.9867 50.3924 69.5415 50.27 69.0874 50.2664C68.6334 50.2629 68.1863 50.3784 67.7908 50.6014C67.556 50.2351 67.2336 49.9331 66.8529 49.7226C68.1688 47.7664 68.928 45.4892 69.0492 43.1348C69.1704 40.7803 68.649 38.4372 67.5409 36.3562C66.4328 34.2753 64.7797 32.5349 62.7584 31.3213C60.7372 30.1077 58.424 29.4665 56.0664 29.4666H36.9999C33.5521 29.4666 30.2455 30.8362 27.8076 33.2741C25.3696 35.7121 24 39.0187 24 42.4665C24 45.9142 25.3696 49.2208 27.8076 51.6588C30.2455 54.0967 33.5521 55.4664 36.9999 55.4664ZM69.0663 51.9997C69.2961 52 69.5164 52.0914 69.6789 52.2538C69.8413 52.4163 69.9327 52.6366 69.933 52.8664V60.6663C69.933 60.8962 70.0243 61.1166 70.1868 61.2791C70.3493 61.4417 70.5698 61.533 70.7996 61.533C71.0295 61.533 71.2499 61.4417 71.4125 61.2791C71.575 61.1166 71.6663 60.8962 71.6663 60.6663V55.4664C71.6663 55.2365 71.7576 55.0161 71.9201 54.8535C72.0827 54.691 72.3031 54.5997 72.533 54.5997C72.7628 54.5997 72.9832 54.691 73.1458 54.8535C73.3083 55.0161 73.3996 55.2365 73.3996 55.4664V66.1778L71.7184 70.801C71.6839 70.896 71.6663 70.9962 71.6663 71.0972V76.2662H60.3997V70.8701C60.3997 70.719 60.3602 70.5705 60.2851 70.4394L57.7997 66.0999V61.1306C57.7997 60.2343 57.9884 58.3174 59.5331 57.7976V60.6663C59.5331 60.8962 59.6244 61.1166 59.7869 61.2791C59.9494 61.4417 60.1699 61.533 60.3997 61.533C60.6296 61.533 60.85 61.4417 61.0125 61.2791C61.1751 61.1166 61.2664 60.8962 61.2664 60.6663V45.9331C61.2664 45.7032 61.3577 45.4828 61.5202 45.3203C61.6827 45.1577 61.9032 45.0664 62.133 45.0664C62.3629 45.0664 62.5833 45.1577 62.7459 45.3203C62.9084 45.4828 62.9997 45.7032 62.9997 45.9331V57.7465C62.9997 57.9764 63.091 58.1968 63.2535 58.3594C63.4161 58.5219 63.6365 58.6132 63.8664 58.6132C64.0962 58.6132 64.3166 58.5219 64.4792 58.3594C64.6417 58.1968 64.733 57.9764 64.733 57.7465V51.9997C64.733 51.7699 64.8243 51.5494 64.9869 51.3869C65.1494 51.2244 65.3698 51.1331 65.5997 51.1331C65.8295 51.1331 66.05 51.2244 66.2125 51.3869C66.375 51.5494 66.4663 51.7699 66.4663 51.9997V58.933C66.4663 59.1628 66.5576 59.3833 66.7202 59.5458C66.8827 59.7083 67.1031 59.7997 67.333 59.7997C67.5628 59.7997 67.7833 59.7083 67.9458 59.5458C68.1083 59.3833 68.1997 59.1628 68.1997 58.933V52.8664C68.1999 52.6366 68.2913 52.4163 68.4538 52.2538C68.6162 52.0914 68.8365 52 69.0663 51.9997ZM36.9999 31.1999H56.0664C58.1895 31.1994 60.2694 31.7989 62.0665 32.9293C63.8636 34.0597 65.3046 35.6749 66.2235 37.5888C67.1423 39.5028 67.5015 41.6374 67.2597 43.7466C67.0179 45.8558 66.185 47.8538 64.8568 49.5101C64.8153 49.5226 64.7735 49.5338 64.733 49.5483V45.9331C64.733 45.2435 64.4591 44.5822 63.9715 44.0946C63.4839 43.607 62.8226 43.3331 62.133 43.3331C61.4435 43.3331 60.7822 43.607 60.2946 44.0946C59.807 44.5822 59.5331 45.2435 59.5331 45.9331V53.1884C58.4132 53.5504 57.2434 53.7342 56.0664 53.733H36.9999C34.0118 53.733 31.1461 52.546 29.0332 50.4331C26.9203 48.3202 25.7333 45.4545 25.7333 42.4665C25.7333 39.4784 26.9203 36.6127 29.0332 34.4998C31.1461 32.3869 34.0118 31.1999 36.9999 31.1999Z" fill="#F5B846"/>
<path d="M51.7332 51.1332C51.7333 50.805 51.6708 50.4797 51.5491 50.1749C52.0704 50.0328 52.5345 49.7319 52.8768 49.3139C53.2192 48.896 53.4229 48.3817 53.4595 47.8426C53.4961 47.3036 53.3639 46.7665 53.0812 46.306C52.7985 45.8456 52.3794 45.4847 51.8821 45.2734L53.4456 37.4559L54.1432 34.6667H56.0665C56.2964 34.6667 56.5168 34.5754 56.6794 34.4128C56.8419 34.2503 56.9332 34.0299 56.9332 33.8C56.9332 33.5702 56.8419 33.3497 56.6794 33.1872C56.5168 33.0247 56.2964 32.9333 56.0665 32.9333H53.4666C53.2733 32.9334 53.0856 32.998 52.9332 33.1169C52.7809 33.2359 52.6727 33.4023 52.6258 33.5898L51.9233 36.4H35.2667C35.1385 36.4 35.0118 36.4284 34.8959 36.4833C34.78 36.5381 34.6778 36.618 34.5965 36.7172C34.5152 36.8163 34.4569 36.9323 34.4258 37.0567C34.3948 37.1811 34.3917 37.3109 34.4168 37.4366L36.1502 46.1032C36.1895 46.2997 36.2956 46.4765 36.4506 46.6035C36.6055 46.7305 36.7997 46.7999 37 46.7999H50.8666C51.0964 46.7999 51.3169 46.8912 51.4794 47.0537C51.6419 47.2163 51.7332 47.4367 51.7332 47.6666C51.7332 47.8964 51.6419 48.1169 51.4794 48.2794C51.3169 48.4419 51.0964 48.5332 50.8666 48.5332H37C36.4477 48.533 35.9097 48.7085 35.4638 49.0343C35.0179 49.3602 34.6873 49.8196 34.5199 50.3459C34.3525 50.8722 34.3569 51.4381 34.5325 51.9617C34.7081 52.4853 35.0458 52.9394 35.4967 53.2583C35.9477 53.5772 36.4884 53.7443 37.0406 53.7355C37.5928 53.7266 38.1278 53.5422 38.5683 53.2089C39.0087 52.8757 39.3316 52.4109 39.4903 51.8819C39.649 51.353 39.6352 50.7872 39.4509 50.2665H46.6824C46.556 50.6236 46.5091 51.0039 46.545 51.3809C46.5809 51.758 46.6988 52.1226 46.8904 52.4493C47.0819 52.776 47.3426 53.0569 47.654 53.2724C47.9655 53.4879 48.3203 53.6327 48.6936 53.6968C49.0669 53.7608 49.4496 53.7426 49.8151 53.6432C50.1806 53.5439 50.52 53.3659 50.8095 53.1218C51.099 52.8776 51.3317 52.5731 51.4912 52.2296C51.6508 51.8861 51.7334 51.5119 51.7332 51.1332ZM51.0228 40.7333H48.7912L49.0512 38.1333H51.5428L51.0228 40.7333ZM43.0666 42.4666V45.0666H41.251L40.991 42.4666H43.0666ZM40.8177 40.7333L40.5577 38.1333H43.0666V40.7333H40.8177ZM44.8 42.4666H46.8756L46.6156 45.0666H44.8V42.4666ZM44.8 40.7333V38.1333H47.3089L47.049 40.7333H44.8ZM38.8157 38.1333L39.0757 40.7333H36.844L36.324 38.1333H38.8157ZM37.1907 42.4666H39.249L39.509 45.0666H37.7107L37.1907 42.4666ZM48.3576 45.0666L48.6176 42.4666H50.6759L50.1559 45.0666H48.3576ZM37.8667 51.1332C37.8667 51.3046 37.8159 51.4722 37.7206 51.6147C37.6254 51.7572 37.49 51.8683 37.3317 51.9339C37.1733 51.9995 36.9991 52.0167 36.831 51.9832C36.6628 51.9498 36.5084 51.8672 36.3872 51.746C36.266 51.6248 36.1835 51.4704 36.15 51.3023C36.1166 51.1342 36.1337 50.9599 36.1993 50.8016C36.2649 50.6432 36.376 50.5078 36.5185 50.4126C36.6611 50.3174 36.8286 50.2665 37 50.2665C37.2298 50.2668 37.4501 50.3582 37.6126 50.5207C37.775 50.6831 37.8664 50.9034 37.8667 51.1332ZM49.1333 51.9999C48.9619 51.9999 48.7943 51.949 48.6518 51.8538C48.5093 51.7586 48.3982 51.6232 48.3326 51.4649C48.267 51.3065 48.2498 51.1322 48.2833 50.9641C48.3167 50.796 48.3992 50.6416 48.5204 50.5204C48.6417 50.3992 48.7961 50.3166 48.9642 50.2832C49.1323 50.2498 49.3066 50.2669 49.4649 50.3325C49.6233 50.3981 49.7586 50.5092 49.8539 50.6517C49.9491 50.7942 49.9999 50.9618 49.9999 51.1332C49.9997 51.363 49.9083 51.5833 49.7458 51.7457C49.5833 51.9082 49.363 51.9996 49.1333 51.9999Z" fill="#F5B846"/>
<path d="M46.7874 60.9204L44.1874 63.5203C44.107 63.6008 44.0431 63.6964 43.9996 63.8015C43.956 63.9067 43.9336 64.0194 43.9336 64.1332C43.9336 64.247 43.956 64.3597 43.9996 64.4648C44.0431 64.57 44.107 64.6655 44.1874 64.746L46.7874 67.346C46.8679 67.4265 46.9634 67.4903 47.0686 67.5339C47.1737 67.5774 47.2864 67.5998 47.4003 67.5998C47.5141 67.5998 47.6268 67.5774 47.7319 67.5339C47.8371 67.4903 47.9326 67.4265 48.0131 67.346L50.6131 64.746C50.6936 64.6655 50.7574 64.57 50.801 64.4648C50.8445 64.3597 50.8669 64.247 50.8669 64.1332C50.8669 64.0194 50.8445 63.9067 50.801 63.8015C50.7574 63.6964 50.6936 63.6008 50.6131 63.5203L48.0131 60.9204C47.9326 60.8399 47.8371 60.776 47.7319 60.7325C47.6268 60.6889 47.5141 60.6665 47.4003 60.6665C47.2864 60.6665 47.1737 60.6889 47.0686 60.7325C46.9634 60.776 46.8679 60.8399 46.7874 60.9204ZM47.4003 65.5076L46.0259 64.1332L47.4003 62.7588L48.7747 64.1332L47.4003 65.5076Z" fill="#F5B846"/>
<path d="M73.1459 26.2539C73.0654 26.1734 72.9699 26.1095 72.8647 26.066C72.7596 26.0224 72.6469 26 72.5331 26C72.4193 26 72.3066 26.0224 72.2014 26.066C72.0963 26.1095 72.0007 26.1734 71.9202 26.2539L69.3203 28.8538C69.2398 28.9343 69.1759 29.0299 69.1324 29.135C69.0888 29.2402 69.0664 29.3529 69.0664 29.4667C69.0664 29.5805 69.0888 29.6932 69.1324 29.7983C69.1759 29.9035 69.2398 29.999 69.3203 30.0795L71.9202 32.6795C72.0007 32.76 72.0963 32.8238 72.2014 32.8674C72.3066 32.9109 72.4193 32.9333 72.5331 32.9333C72.6469 32.9333 72.7596 32.9109 72.8647 32.8674C72.9699 32.8238 73.0654 32.76 73.1459 32.6795L75.7459 30.0795C75.8264 29.999 75.8902 29.9035 75.9338 29.7983C75.9773 29.6932 75.9998 29.5805 75.9998 29.4667C75.9998 29.3529 75.9773 29.2402 75.9338 29.135C75.8902 29.0299 75.8264 28.9343 75.7459 28.8538L73.1459 26.2539ZM72.5331 30.8411L71.1587 29.4667L72.5331 28.0923L73.9075 29.4667L72.5331 30.8411Z" fill="#F5B846"/>
</svg>
