<svg width="109" height="20" viewBox="0 0 109 20" fill="none" xmlns="http://www.w3.org/2000/svg">
<path fill-rule="evenodd" clip-rule="evenodd" d="M14 14.0636C14 17.3364 11.3138 20 8 20V5.93636C8 2.66364 10.6862 0 14 0V14.0636Z" fill="white"/>
<path fill-rule="evenodd" clip-rule="evenodd" d="M3 20C4.65685 20 6 18.6569 6 17C6 15.3431 4.65685 14 3 14C1.34315 14 0 15.3431 0 17C0 18.6569 1.34315 20 3 20Z" fill="#5BB75F"/>
<path fill-rule="evenodd" clip-rule="evenodd" d="M108.66 0.726612C108.439 0.433939 108.124 0.224585 107.767 0.132917L107.23 0L106.712 0.194945C106.4 0.33786 106.143 0.577254 105.979 0.877251L99.1079 12.1309L92.2364 0.877251C92.0476 0.567941 91.7621 0.328326 91.4232 0.194945C91.0892 0.0678593 90.7231 0.0492423 90.3777 0.141778C90.0206 0.233446 89.7055 0.4428 89.4842 0.735473C89.2609 1.01517 89.141 1.36233 89.1446 1.71906V18.3603C89.159 19.2548 89.8867 19.9765 90.7888 19.9907C91.2163 19.988 91.625 19.8157 91.9236 19.5122C92.2442 19.2143 92.4227 18.7958 92.4151 18.3603V7.58512L97.6782 16.1716L97.7497 16.269C97.746 16.2866 97.746 16.3047 97.7497 16.3222L97.8211 16.3931L97.8748 16.4462L97.9373 16.4994L98.2947 16.6057L98.393 16.6766L98.5003 16.7298H98.7058C98.8247 16.7675 98.9477 16.7912 99.0721 16.8007H99.1257C99.3558 16.8109 99.5851 16.7684 99.7959 16.6766H99.8763L99.9746 16.6235L100.073 16.5703L100.153 16.4994L100.207 16.4462L100.377 16.3399L100.448 16.269V16.2159L100.502 16.1184L105.711 7.58512V18.3603C105.701 18.7928 105.873 19.21 106.185 19.5122C106.495 19.8206 106.916 19.994 107.355 19.994C107.795 19.994 108.216 19.8206 108.526 19.5122C108.837 19.2094 109.009 18.7926 109 18.3603V1.7102C109.003 1.35347 108.883 1.00631 108.66 0.726612ZM67.9403 17.0666C69.789 18.9713 72.3517 20.0301 75.0173 19.9907C77.6881 20.0297 80.2561 18.9713 82.1122 17.0666C84.0246 15.229 85.0854 12.6889 85.0431 10.0485C85.0839 7.40331 84.0237 4.85829 82.1122 3.01281C78.1977 -0.865436 71.8548 -0.865436 67.9403 3.01281C66.0195 4.85345 64.9522 7.40006 64.9915 10.0485C64.9518 12.6919 66.0196 15.2332 67.9403 17.0666ZM44.9846 17.0665C46.8333 18.9712 49.396 20.0301 52.0616 19.9907C54.7324 20.0297 57.3004 18.9712 59.1565 17.0665C61.0689 15.2289 62.1297 12.6888 62.0874 10.0485C62.1282 7.40325 61.068 4.85823 59.1565 3.01276C57.2955 1.1172 54.7291 0.0658589 52.0616 0.106307C49.3991 0.0644171 46.8376 1.11637 44.9846 3.01276C43.0638 4.85339 41.9965 7.40001 42.0358 10.0485C41.9961 12.6919 43.0638 15.2332 44.9846 17.0665ZM35.8791 0.620281C35.5608 0.923415 35.383 1.34349 35.3876 1.78109V13.9651C35.4063 14.6901 35.1254 15.3911 34.6102 15.9057C34.0973 16.4296 33.3896 16.7212 32.6533 16.7121C32.2141 16.7045 31.7921 16.8815 31.4917 17.1994C31.1734 17.5026 30.9956 17.9227 31.0002 18.3603C30.9926 18.7958 31.1711 19.2143 31.4917 19.5122C31.7921 19.8301 32.2141 20.0071 32.6533 19.9996C34.2707 20.0192 35.8249 19.3784 36.9514 18.2273C38.1121 17.1103 38.7584 15.569 38.7385 13.9651V1.78109C38.7432 1.34349 38.5654 0.923415 38.2471 0.620281C37.9467 0.302377 37.5247 0.125331 37.0854 0.132919C36.6318 0.118295 36.1933 0.295464 35.8791 0.620281ZM52.0616 3.37606C50.2765 3.3488 48.5594 4.05429 47.3168 5.32551C46.0264 6.56078 45.3085 8.27011 45.333 10.0485C45.307 11.822 46.0256 13.5264 47.3168 14.7537C48.5736 16.0114 50.2851 16.7188 52.0705 16.7188C53.856 16.7188 55.5675 16.0114 56.8243 14.7537C58.1062 13.5215 58.8176 11.8187 58.7902 10.0485C58.8196 8.27447 58.1119 6.56653 56.8332 5.32551C55.5812 4.05197 53.855 3.34673 52.0616 3.37606ZM75.0173 3.37609C73.2199 3.33896 71.4879 4.04523 70.2367 5.32554C68.9464 6.56081 68.2285 8.27014 68.253 10.0485C68.227 11.822 68.9455 13.5264 70.2367 14.7538C71.4936 16.0114 73.205 16.7189 74.9905 16.7189C76.776 16.7189 78.4875 16.0114 79.7443 14.7538C81.0262 13.5215 81.7376 11.8187 81.7101 10.0485C81.7372 8.27318 81.0263 6.56505 79.7443 5.32554C78.503 4.06323 76.7952 3.35895 75.0173 3.37609Z" fill="white"/>
</svg>
