<svg width="60" height="60" viewBox="0 0 60 60" fill="none" xmlns="http://www.w3.org/2000/svg">
<path d="M50 35H10C9.73478 35 9.48043 35.1054 9.29289 35.2929C9.10536 35.4804 9 35.7348 9 36V48C9 48.2652 9.10536 48.5196 9.29289 48.7071C9.48043 48.8946 9.73478 49 10 49H50C50.2652 49 50.5196 48.8946 50.7071 48.7071C50.8946 48.5196 51 48.2652 51 48V36C51 35.7348 50.8946 35.4804 50.7071 35.2929C50.5196 35.1054 50.2652 35 50 35ZM17 47V42C17 41.7348 17.1054 41.4804 17.2929 41.2929C17.4804 41.1054 17.7348 41 18 41H26C26.2652 41 26.5196 41.1054 26.7071 41.2929C26.8946 41.4804 27 41.7348 27 42V47H17ZM35 47C35 46.2044 35.3161 45.4413 35.8787 44.8787C36.4413 44.3161 37.2044 44 38 44H40C40.7956 44 41.5587 44.3161 42.1213 44.8787C42.6839 45.4413 43 46.2044 43 47H35ZM38 41C38 40.8022 38.0586 40.6089 38.1685 40.4444C38.2784 40.28 38.4346 40.1518 38.6173 40.0761C38.8 40.0004 39.0011 39.9806 39.1951 40.0192C39.3891 40.0578 39.5673 40.153 39.7071 40.2929C39.847 40.4327 39.9422 40.6109 39.9808 40.8049C40.0194 40.9989 39.9996 41.2 39.9239 41.3827C39.8482 41.5654 39.72 41.7216 39.5556 41.8315C39.3911 41.9414 39.1978 42 39 42C38.7348 42 38.4804 41.8946 38.2929 41.7071C38.1054 41.5196 38 41.2652 38 41ZM49 47H45C44.9968 45.9726 44.6767 44.9712 44.0835 44.1324C43.4902 43.2936 42.6526 42.6583 41.685 42.313C41.9132 41.8556 42.0207 41.3475 41.9974 40.8369C41.9741 40.3263 41.8207 39.8301 41.5517 39.3954C41.2828 38.9608 40.9073 38.602 40.4608 38.3532C40.0143 38.1044 39.5116 37.9738 39.0005 37.9738C38.4894 37.9738 37.9867 38.1044 37.5402 38.3532C37.0937 38.602 36.7182 38.9608 36.4493 39.3954C36.1803 39.8301 36.0269 40.3263 36.0036 40.8369C35.9803 41.3475 36.0878 41.8556 36.316 42.313C35.3481 42.658 34.5102 43.2932 33.9168 44.1321C33.3233 44.9709 33.0031 45.9725 33 47H29V42C29 41.2044 28.6839 40.4413 28.1213 39.8787C27.5587 39.3161 26.7956 39 26 39H18C17.2044 39 16.4413 39.3161 15.8787 39.8787C15.3161 40.4413 15 41.2044 15 42V47H11V37H49V47Z" fill="black"/>
<path d="M23 43H21V45H23V43Z" fill="black"/>
<path d="M55 58V33.9C56.1286 33.6679 57.1427 33.0538 57.8713 32.1613C58.5999 31.2687 58.9985 30.1522 59 29V23C59.0017 22.8453 58.9675 22.6923 58.9 22.553L52.9 10.553C52.8166 10.386 52.688 10.2457 52.529 10.148C52.3699 10.0502 52.1867 9.99898 52 10H48V1C48 0.734784 47.8946 0.48043 47.7071 0.292893C47.5196 0.105357 47.2652 0 47 0H13C12.7348 0 12.4804 0.105357 12.2929 0.292893C12.1054 0.48043 12 0.734784 12 1V10H8C7.81417 9.99991 7.63199 10.0516 7.4739 10.1493C7.31581 10.247 7.18807 10.3868 7.105 10.553L1.105 22.553C1.0358 22.6918 0.999855 22.8449 1 23V29C1.00145 30.1522 1.40009 31.2687 2.12872 32.1613C2.85735 33.0538 3.87141 33.6679 5 33.9V58H0V60H60V58H55ZM57 29C57 29.7956 56.6839 30.5587 56.1213 31.1213C55.5587 31.6839 54.7957 32 54 32C53.2043 32 52.4413 31.6839 51.8787 31.1213C51.3161 30.5587 51 29.7956 51 29V28H57V29ZM49 29C49 29.7956 48.6839 30.5587 48.1213 31.1213C47.5587 31.6839 46.7957 32 46 32C45.2043 32 44.4413 31.6839 43.8787 31.1213C43.3161 30.5587 43 29.7956 43 29V28H49V29ZM41 29C41 29.7956 40.6839 30.5587 40.1213 31.1213C39.5587 31.6839 38.7957 32 38 32C37.2043 32 36.4413 31.6839 35.8787 31.1213C35.3161 30.5587 35 29.7956 35 29V28H41V29ZM33 29C33 29.7956 32.6839 30.5587 32.1213 31.1213C31.5587 31.6839 30.7956 32 30 32C29.2044 32 28.4413 31.6839 27.8787 31.1213C27.3161 30.5587 27 29.7956 27 29V28H33V29ZM25 29C25 29.7956 24.6839 30.5587 24.1213 31.1213C23.5587 31.6839 22.7956 32 22 32C21.2044 32 20.4413 31.6839 19.8787 31.1213C19.3161 30.5587 19 29.7956 19 29V28H25V29ZM17 29C17 29.7956 16.6839 30.5587 16.1213 31.1213C15.5587 31.6839 14.7956 32 14 32C13.2044 32 12.4413 31.6839 11.8787 31.1213C11.3161 30.5587 11 29.7956 11 29V28H17V29ZM3 24H57V26H3V24ZM14 2H46V18H14V2ZM8.618 12H12V19C12 19.2652 12.1054 19.5196 12.2929 19.7071C12.4804 19.8946 12.7348 20 13 20H47C47.2652 20 47.5196 19.8946 47.7071 19.7071C47.8946 19.5196 48 19.2652 48 19V12H51.382L56.382 22H3.618L8.618 12ZM3 29V28H9V29C9 29.7956 8.68393 30.5587 8.12132 31.1213C7.55871 31.6839 6.79565 32 6 32C5.20435 32 4.44129 31.6839 3.87868 31.1213C3.31607 30.5587 3 29.7956 3 29ZM7 58V33.9C8.2035 33.6479 9.2717 32.9607 10 31.97C10.4599 32.5994 11.0618 33.1114 11.7569 33.4644C12.4519 33.8173 13.2205 34.0013 14 34.0013C14.7795 34.0013 15.5481 33.8173 16.2431 33.4644C16.9382 33.1114 17.5401 32.5994 18 31.97C18.4599 32.5994 19.0618 33.1114 19.7569 33.4644C20.4519 33.8173 21.2205 34.0013 22 34.0013C22.7795 34.0013 23.5481 33.8173 24.2431 33.4644C24.9382 33.1114 25.5401 32.5994 26 31.97C26.4599 32.5994 27.0618 33.1114 27.7569 33.4644C28.4519 33.8173 29.2205 34.0013 30 34.0013C30.7795 34.0013 31.5481 33.8173 32.2431 33.4644C32.9382 33.1114 33.5401 32.5994 34 31.97C34.4599 32.5994 35.0618 33.1114 35.7569 33.4644C36.4519 33.8173 37.2205 34.0013 38 34.0013C38.7795 34.0013 39.5481 33.8173 40.2431 33.4644C40.9382 33.1114 41.5401 32.5994 42 31.97C42.4599 32.5994 43.0618 33.1114 43.7569 33.4644C44.4519 33.8173 45.2205 34.0013 46 34.0013C46.7795 34.0013 47.5481 33.8173 48.2431 33.4644C48.9382 33.1114 49.5401 32.5994 50 31.97C50.7283 32.9607 51.7965 33.6479 53 33.9V58H7Z" fill="black"/>
<path d="M35 7H33V5C33 4.73478 32.8946 4.48043 32.7071 4.29289C32.5196 4.10536 32.2652 4 32 4H28C27.7348 4 27.4804 4.10536 27.2929 4.29289C27.1054 4.48043 27 4.73478 27 5V7H25C24.7348 7 24.4804 7.10536 24.2929 7.29289C24.1054 7.48043 24 7.73478 24 8V12C24 12.2652 24.1054 12.5196 24.2929 12.7071C24.4804 12.8946 24.7348 13 25 13H27V15C27 15.2652 27.1054 15.5196 27.2929 15.7071C27.4804 15.8946 27.7348 16 28 16H32C32.2652 16 32.5196 15.8946 32.7071 15.7071C32.8946 15.5196 33 15.2652 33 15V13H35C35.2652 13 35.5196 12.8946 35.7071 12.7071C35.8946 12.5196 36 12.2652 36 12V8C36 7.73478 35.8946 7.48043 35.7071 7.29289C35.5196 7.10536 35.2652 7 35 7ZM34 11H32C31.7348 11 31.4804 11.1054 31.2929 11.2929C31.1054 11.4804 31 11.7348 31 12V14H29V12C29 11.7348 28.8946 11.4804 28.7071 11.2929C28.5196 11.1054 28.2652 11 28 11H26V9H28C28.2652 9 28.5196 8.89464 28.7071 8.70711C28.8946 8.51957 29 8.26522 29 8V6H31V8C31 8.26522 31.1054 8.51957 31.2929 8.70711C31.4804 8.89464 31.7348 9 32 9H34V11Z" fill="black"/>
</svg>
