<svg width="45" height="45" viewBox="0 0 45 45" fill="none" xmlns="http://www.w3.org/2000/svg">
<path d="M13.5 21.5H12.5V23.5H13.5V21.5ZM31.5 23.5H32.5V21.5H31.5V23.5ZM13.5 12.5H12.5V14.5H13.5V12.5ZM19.5 14.5H20.5V12.5H19.5V14.5ZM31.5 1.5L32.2071 0.792893L31.9142 0.5H31.5V1.5ZM40.5 10.5H41.5V10.0858L41.2071 9.79289L40.5 10.5ZM24 33L23.2929 33.7071H23.2929L24 33ZM22.5 34.5L22.9472 35.3944L23.0279 35.3541L23.1 35.3L22.5 34.5ZM13.5 23.5H31.5V21.5H13.5V23.5ZM13.5 14.5H19.5V12.5H13.5V14.5ZM37.5 42.5H7.5V44.5H37.5V42.5ZM5.5 40.5V4.5H3.5V40.5H5.5ZM7.5 2.5H31.5V0.5H7.5V2.5ZM39.5 10.5V40.5H41.5V10.5H39.5ZM30.7929 2.20711L39.7929 11.2071L41.2071 9.79289L32.2071 0.792893L30.7929 2.20711ZM7.5 42.5C6.39543 42.5 5.5 41.6046 5.5 40.5H3.5C3.5 42.7091 5.29086 44.5 7.5 44.5V42.5ZM37.5 44.5C39.7091 44.5 41.5 42.7091 41.5 40.5H39.5C39.5 41.6046 38.6046 42.5 37.5 42.5V44.5ZM5.5 4.5C5.5 3.39543 6.39543 2.5 7.5 2.5V0.5C5.29086 0.5 3.5 2.29086 3.5 4.5H5.5ZM15.9487 34.8162C16.3376 33.6494 17.4184 32.6078 18.7845 32.2408C20.0959 31.8884 21.732 32.1462 23.2929 33.7071L24.7071 32.2929C22.668 30.2538 20.3041 29.7616 18.2655 30.3092C16.2816 30.8422 14.6624 32.3506 14.0513 34.1838L15.9487 34.8162ZM23.2929 33.7071C23.4039 33.8181 23.4947 33.9214 23.5686 34.0164L25.1479 32.7894C25.0175 32.6216 24.8704 32.4562 24.7071 32.2929L23.2929 33.7071ZM23.5686 34.0164C23.8606 34.3923 23.8721 34.6142 23.8605 34.7131C23.8471 34.8263 23.7767 34.9967 23.5391 35.2127C23.0359 35.6703 22.0999 36.0352 21.2261 36.1674C20.7955 36.2325 20.4748 36.2258 20.3041 36.192C20.215 36.1744 20.2408 36.1637 20.3115 36.2157C20.4097 36.2879 20.5539 36.4593 20.5652 36.7129C20.5743 36.9162 20.4878 37.0089 20.5259 36.9552C20.5574 36.9107 20.6447 36.8098 20.8366 36.6547C21.2186 36.3458 21.8839 35.9261 22.9472 35.3944L22.0528 33.6056C20.9346 34.1647 20.1235 34.6594 19.5792 35.0994C19.3079 35.3187 19.0696 35.5509 18.8936 35.7995C18.7243 36.0387 18.5486 36.3844 18.5672 36.8019C18.588 37.2697 18.8406 37.6166 19.1266 37.827C19.3852 38.017 19.6782 38.107 19.9165 38.1541C20.4006 38.2498 20.9751 38.2281 21.5253 38.1449C22.613 37.9803 23.9807 37.5144 24.8847 36.6924C25.3507 36.2686 25.7597 35.6871 25.8468 34.9468C25.9355 34.1923 25.6684 33.4593 25.1479 32.7894L23.5686 34.0164ZM23.1 35.3C23.6795 34.8654 24.2314 34.5474 24.7554 34.3207L23.9612 32.4852C23.2801 32.7799 22.5931 33.1802 21.9 33.7L23.1 35.3ZM24.7554 34.3207C26.9038 33.3911 28.8112 33.9053 30.6482 34.7801C31.1087 34.9994 31.5562 35.2373 32.0011 35.4781C32.4385 35.7149 32.886 35.9616 33.3123 36.1773C34.1356 36.5941 35.0696 37 36 37V35C35.5895 35 35.0327 34.8065 34.2154 34.3929C33.8214 34.1935 33.4112 33.9672 32.9533 33.7193C32.503 33.4756 32.0178 33.2171 31.5081 32.9744C29.4646 32.0013 26.8921 31.2169 23.9612 32.4852L24.7554 34.3207Z" fill="#F5B846"/>
</svg>
