<svg width="60" height="58" viewBox="0 0 60 58" fill="none" xmlns="http://www.w3.org/2000/svg">
<path d="M55 0H5C3.67441 0.00158786 2.40356 0.528882 1.46622 1.46622C0.528882 2.40356 0.00158786 3.67441 0 5V41C0.00158786 42.3256 0.528882 43.5964 1.46622 44.5338C2.40356 45.4711 3.67441 45.9984 5 46H21.867L21.117 52H20C19.4696 52 18.9609 52.2107 18.5858 52.5858C18.2107 52.9609 18 53.4696 18 54V56H16V58H44V56H42V54C42 53.4696 41.7893 52.9609 41.4142 52.5858C41.0391 52.2107 40.5304 52 40 52H38.883L38.133 46H55C56.3256 45.9984 57.5964 45.4711 58.5338 44.5338C59.4711 43.5964 59.9984 42.3256 60 41V5C59.9984 3.67441 59.4711 2.40356 58.5338 1.46622C57.5964 0.528882 56.3256 0.00158786 55 0ZM5 2H55C55.7957 2 56.5587 2.31607 57.1213 2.87868C57.6839 3.44129 58 4.20435 58 5V36H2V5C2 4.20435 2.31607 3.44129 2.87868 2.87868C3.44129 2.31607 4.20435 2 5 2ZM40 56H20V54H40V56ZM36.867 52H23.133L23.883 46H36.117L36.867 52ZM55 44H5C4.20435 44 3.44129 43.6839 2.87868 43.1213C2.31607 42.5587 2 41.7957 2 41V38H58V41C58 41.7957 57.6839 42.5587 57.1213 43.1213C56.5587 43.6839 55.7957 44 55 44Z" fill="black"/>
<path d="M53 41C53 41.5523 53.4477 42 54 42C54.5523 42 55 41.5523 55 41C55 40.4477 54.5523 40 54 40C53.4477 40 53 40.4477 53 41Z" fill="black"/>
<path d="M44.0855 9.32847C44.2958 9.11815 44.5811 9 44.8785 9H45C45.5523 9 46 8.55228 46 8C46 7.44772 45.5523 7 45 7H44C43.7348 7.00006 43.4805 7.10545 43.293 7.293L41 9.586C40.6095 9.97646 40.6095 10.6095 41 11C41.3905 11.3905 42.0235 11.3905 42.414 11L44.0855 9.32847Z" fill="black"/>
<path d="M51 6H49C48.4477 6 48 6.44772 48 7C48 7.55228 48.4477 8 49 8H51C51.5523 8 52 7.55228 52 7C52 6.44772 51.5523 6 51 6Z" fill="black"/>
<path d="M51 10H49C48.4477 10 48 10.4477 48 11C48 11.5523 48.4477 12 49 12H51C51.5523 12 52 11.5523 52 11C52 10.4477 51.5523 10 51 10Z" fill="black"/>
<path d="M42.414 26C42.0235 25.6095 41.3905 25.6095 41 26C40.6095 26.3904 40.6095 27.0235 41 27.414L43.293 29.707C43.4805 29.8945 43.7348 29.9999 44 30H45C45.5523 30 46 29.5523 46 29C46 28.4477 45.5523 28 45 28H44.8785C44.5811 28 44.2958 27.8818 44.0855 27.6715L42.414 26Z" fill="black"/>
<path d="M51 26H49C48.4477 26 48 26.4477 48 27C48 27.5523 48.4477 28 49 28H51C51.5523 28 52 27.5523 52 27C52 26.4477 51.5523 26 51 26Z" fill="black"/>
<path d="M51 30H49C48.4477 30 48 30.4477 48 31C48 31.5523 48.4477 32 49 32H51C51.5523 32 52 31.5523 52 31C52 30.4477 51.5523 30 51 30Z" fill="black"/>
<path d="M17.586 11C17.9765 11.3905 18.6095 11.3905 19 11C19.3905 10.6095 19.3905 9.97647 19 9.586L16.707 7.293C16.5195 7.10545 16.2652 7.00006 16 7H15C14.4477 7 14 7.44772 14 8C14 8.55228 14.4477 9 15 9H15.1215C15.4189 9 15.7042 9.11815 15.9145 9.32847L17.586 11Z" fill="black"/>
<path d="M11 6H9C8.44772 6 8 6.44772 8 7C8 7.55228 8.44772 8 9 8H11C11.5523 8 12 7.55228 12 7C12 6.44772 11.5523 6 11 6Z" fill="black"/>
<path d="M11 10H9C8.44772 10 8 10.4477 8 11C8 11.5523 8.44772 12 9 12H11C11.5523 12 12 11.5523 12 11C12 10.4477 11.5523 10 11 10Z" fill="black"/>
<path d="M16.707 29.707L19 27.414C19.3905 27.0235 19.3905 26.3904 19 26C18.6095 25.6095 17.9765 25.6095 17.586 26L15.9145 27.6715C15.7042 27.8818 15.4189 28 15.1215 28H15C14.4477 28 14 28.4477 14 29C14 29.5523 14.4477 30 15 30H16C16.2652 29.9999 16.5195 29.8945 16.707 29.707Z" fill="black"/>
<path d="M11 26H9C8.44772 26 8 26.4477 8 27C8 27.5523 8.44772 28 9 28H11C11.5523 28 12 27.5523 12 27C12 26.4477 11.5523 26 11 26Z" fill="black"/>
<path d="M11 30H9C8.44772 30 8 30.4477 8 31C8 31.5523 8.44772 32 9 32H11C11.5523 32 12 31.5523 12 31C12 30.4477 11.5523 30 11 30Z" fill="black"/>
<path d="M24 24H36C37.3261 24 38.5979 23.4732 39.5355 22.5355C40.4732 21.5979 41 20.3261 41 19C41 17.6739 40.4732 16.4021 39.5355 15.4645C38.5979 14.5268 37.3261 14 36 14H24C22.6739 14 21.4021 14.5268 20.4645 15.4645C19.5268 16.4021 19 17.6739 19 19C19 20.3261 19.5268 21.5979 20.4645 22.5355C21.4021 23.4732 22.6739 24 24 24ZM39 19C39 19.7956 38.6839 20.5587 38.1213 21.1213C37.5587 21.6839 36.7956 22 36 22H31V16H36C36.7956 16 37.5587 16.3161 38.1213 16.8787C38.6839 17.4413 39 18.2044 39 19ZM24 16H29V22H24C23.2044 22 22.4413 21.6839 21.8787 21.1213C21.3161 20.5587 21 19.7956 21 19C21 18.2044 21.3161 17.4413 21.8787 16.8787C22.4413 16.3161 23.2044 16 24 16Z" fill="black"/>
</svg>
