<svg width="60" height="56" viewBox="0 0 60 56" fill="none" xmlns="http://www.w3.org/2000/svg">
<path d="M55 0H5C3.67441 0.00158786 2.40356 0.528882 1.46622 1.46622C0.528882 2.40356 0.00158786 3.67441 0 5V39C0.00158786 40.3256 0.528882 41.5964 1.46622 42.5338C2.40356 43.4711 3.67441 43.9984 5 44H20.867L20.117 50H19C18.7348 50 18.4804 50.1054 18.2929 50.2929C18.1054 50.4804 18 50.7348 18 51V54H14V56H46V54H42V51C42 50.7348 41.8946 50.4804 41.7071 50.2929C41.5196 50.1054 41.2652 50 41 50H39.883L39 42.938V42H5C4.20435 42 3.44129 41.6839 2.87868 41.1213C2.31607 40.5587 2 39.7957 2 39V36H39V34H2V5C2 4.20435 2.31607 3.44129 2.87868 2.87868C3.44129 2.31607 4.20435 2 5 2H55C55.7957 2 56.5587 2.31607 57.1213 2.87868C57.6839 3.44129 58 4.20435 58 5V34H49V36H58V39C58 39.7957 57.6839 40.5587 57.1213 41.1213C56.5587 41.6839 55.7957 42 55 42H49V44H55C56.3256 43.9984 57.5964 43.4711 58.5338 42.5338C59.4711 41.5964 59.9984 40.3256 60 39V5C59.9984 3.67441 59.4711 2.40356 58.5338 1.46622C57.5964 0.528882 56.3256 0.00158786 55 0ZM40 54H20V52H40V54ZM22.133 50L22.883 44H37.117L37.867 50H22.133Z" fill="black"/>
<path d="M52 39C52 39.5523 52.4477 40 53 40C53.5523 40 54 39.5523 54 39C54 38.4477 53.5523 38 53 38C52.4477 38 52 38.4477 52 39Z" fill="black"/>
<path d="M6 18C6 20.3734 6.70379 22.6935 8.02236 24.6668C9.34094 26.6402 11.2151 28.1783 13.4078 29.0866C15.6005 29.9948 18.0133 30.2324 20.3411 29.7694C22.6689 29.3064 24.8071 28.1635 26.4853 26.4853C28.1635 24.8071 29.3064 22.6689 29.7694 20.3411C30.2324 18.0133 29.9948 15.6005 29.0866 13.4078C28.1783 11.2151 26.6402 9.34094 24.6668 8.02236C22.6935 6.70379 20.3734 6 18 6C14.8185 6.00344 11.7682 7.26883 9.51852 9.51852C7.26883 11.7682 6.00344 14.8185 6 18ZM28 18C28 19.9778 27.4135 21.9112 26.3147 23.5557C25.2159 25.2002 23.6541 26.4819 21.8268 27.2388C19.9996 27.9957 17.9889 28.1937 16.0491 27.8079C14.1093 27.422 12.3275 26.4696 10.9289 25.0711C9.53041 23.6725 8.578 21.8907 8.19215 19.9509C7.8063 18.0111 8.00433 16.0004 8.7612 14.1732C9.51808 12.3459 10.7998 10.7841 12.4443 9.6853C14.0888 8.58649 16.0222 8 18 8C20.6513 8.00291 23.1931 9.05742 25.0679 10.9321C26.9426 12.8069 27.9971 15.3487 28 18Z" fill="black"/>
<path d="M56 15.9999C56.0035 13.7547 55.3771 11.5535 54.192 9.64661C53.0068 7.73969 51.3104 6.20351 49.2957 5.21268C47.2809 4.22186 45.0286 3.81614 42.7948 4.04164C40.5609 4.26715 38.4351 5.11483 36.659 6.48833C34.883 7.86183 33.5278 9.70605 32.7477 11.8114C31.9676 13.9167 31.7937 16.1986 32.2459 18.3978C32.6981 20.597 33.7582 22.6253 35.3057 24.252C36.8532 25.8787 38.8261 27.0386 41 27.5999V44.9999C41 45.7956 41.3161 46.5586 41.8787 47.1212C42.4413 47.6838 43.2043 47.9999 44 47.9999C44.7956 47.9999 45.5587 47.6838 46.1213 47.1212C46.6839 46.5586 47 45.7956 47 44.9999V27.5999C49.5719 26.9341 51.8504 25.4343 53.4789 23.3353C55.1075 21.2363 55.9941 18.6566 56 15.9999ZM34 15.9999C34 14.0221 34.5865 12.0887 35.6853 10.4442C36.7841 8.79972 38.3459 7.51799 40.1732 6.76111C42.0004 6.00424 44.0111 5.8062 45.9509 6.19206C47.8907 6.57791 49.6725 7.53032 51.0711 8.92884C52.4696 10.3274 53.422 12.1092 53.8078 14.049C54.1937 15.9888 53.9957 17.9995 53.2388 19.8267C52.4819 21.654 51.2002 23.2158 49.5557 24.3146C47.9112 25.4134 45.9778 25.9999 44 25.9999C41.3487 25.997 38.8069 24.9425 36.9321 23.0678C35.0574 21.193 34.0029 18.6512 34 15.9999ZM45 44.9999C45 45.2651 44.8946 45.5195 44.7071 45.707C44.5196 45.8946 44.2652 45.9999 44 45.9999C43.7348 45.9999 43.4804 45.8946 43.2929 45.707C43.1053 45.5195 43 45.2651 43 44.9999V27.9489C43.331 27.9769 43.662 27.9999 44 27.9999C44.338 27.9999 44.669 27.9769 45 27.9489V44.9999Z" fill="black"/>
<path d="M53 16C53 14.22 52.4722 12.4799 51.4832 10.9999C50.4943 9.51983 49.0887 8.36628 47.4442 7.68509C45.7996 7.0039 43.99 6.82567 42.2442 7.17294C40.4984 7.5202 38.8947 8.37737 37.636 9.63604C36.3774 10.8947 35.5202 12.4984 35.1729 14.2442C34.8257 15.99 35.0039 17.7996 35.6851 19.4442C36.3663 21.0887 37.5198 22.4943 38.9999 23.4832C40.4799 24.4722 42.22 25 44 25C46.3861 24.9971 48.6736 24.0479 50.3607 22.3608C52.0479 20.6736 52.9971 18.3861 53 16ZM37 16C37 14.6155 37.4105 13.2622 38.1797 12.111C38.9489 10.9599 40.0421 10.0627 41.3212 9.53285C42.6003 9.00303 44.0078 8.86441 45.3656 9.13451C46.7235 9.4046 47.9708 10.0713 48.9498 11.0503C49.9287 12.0292 50.5954 13.2765 50.8655 14.6344C51.1356 15.9922 50.997 17.3997 50.4672 18.6788C49.9373 19.9579 49.0401 21.0511 47.889 21.8203C46.7379 22.5895 45.3845 23 44 23C42.1441 22.9979 40.3649 22.2597 39.0526 20.9474C37.7403 19.6351 37.0021 17.8559 37 16Z" fill="black"/>
<path d="M12.343 18C11.5928 18.7502 11.1714 19.7676 11.1714 20.8285C11.1714 21.8894 11.5928 22.9068 12.343 23.657C13.0932 24.4072 14.1106 24.8286 15.1715 24.8286C16.2324 24.8286 17.2498 24.4072 18 23.657L23.657 18C24.4072 17.2498 24.8286 16.2324 24.8286 15.1715C24.8286 14.1106 24.4072 13.0932 23.657 12.343C22.9068 11.5928 21.8894 11.1714 20.8285 11.1714C19.7676 11.1714 18.7502 11.5928 18 12.343L12.343 18ZM16.586 22.243C16.2108 22.6181 15.702 22.8289 15.1715 22.8289C14.6409 22.8289 14.1321 22.6181 13.757 22.243C13.3818 21.8678 13.1711 21.359 13.1711 20.8285C13.1711 20.5658 13.2228 20.3057 13.3234 20.063C13.4239 19.8203 13.5712 19.5997 13.757 19.414L15.879 17.293L18.707 20.121L16.586 22.243ZM20.829 13.173C21.2243 13.1733 21.6106 13.2907 21.9392 13.5104C22.2678 13.7301 22.524 14.0423 22.6753 14.4075C22.8266 14.7727 22.8663 15.1745 22.7893 15.5623C22.7124 15.95 22.5223 16.3062 22.243 16.586L20.121 18.707L17.293 15.879L19.414 13.757C19.5999 13.5715 19.8206 13.4245 20.0634 13.3243C20.3062 13.2241 20.5663 13.1727 20.829 13.173Z" fill="black"/>
</svg>
