<svg width="57" height="61" viewBox="0 0 57 61" fill="none" xmlns="http://www.w3.org/2000/svg">
<path d="M50.7649 40.1412C50.2895 39.9174 49.7744 39.7903 49.2494 39.7671C48.7245 39.7439 48.2002 39.8252 47.7069 40.0062L41.4719 42.2752C41.1904 41.7257 40.7856 41.2489 40.2891 40.8819C39.7925 40.515 39.2178 40.268 38.6099 40.1602L25.0199 37.7602C24.8477 37.7284 24.67 37.744 24.5059 37.8052L17.9749 40.1812L17.6329 39.2422C17.5421 38.9931 17.3562 38.7903 17.1159 38.6782C16.9972 38.6221 16.8685 38.5902 16.7373 38.5844C16.6061 38.5786 16.4751 38.5989 16.3519 38.6442L8.8339 41.3812C8.71037 41.4259 8.59686 41.4945 8.49985 41.5831C8.40284 41.6717 8.32423 41.7785 8.26851 41.8974C8.21279 42.0164 8.18105 42.1452 8.17512 42.2764C8.16918 42.4076 8.18915 42.5387 8.2339 42.6622L1.6559 45.0622C1.53237 45.1069 1.41886 45.1755 1.32185 45.2641C1.22484 45.3527 1.14623 45.4595 1.09051 45.5784C1.03479 45.6974 1.00305 45.8262 0.997116 45.9574C0.991178 46.0886 1.01115 46.2197 1.0559 46.3432L5.8489 59.5002C5.91905 59.693 6.04676 59.8595 6.21473 59.9772C6.3827 60.0949 6.5828 60.1581 6.7879 60.1582C6.90462 60.1584 7.02043 60.1377 7.1299 60.0972L13.7079 57.7002C13.7526 57.8238 13.8212 57.9373 13.9097 58.0343C13.9983 58.1313 14.1051 58.2099 14.2241 58.2656C14.3431 58.3214 14.4718 58.3531 14.6031 58.359C14.7343 58.365 14.8654 58.345 14.9889 58.3002L22.5069 55.5632C22.6304 55.5186 22.7439 55.45 22.841 55.3614C22.938 55.2728 23.0166 55.166 23.0723 55.047C23.128 54.9281 23.1597 54.7993 23.1657 54.6681C23.1716 54.5369 23.1516 54.4058 23.1069 54.2822L22.7649 53.3422L23.3759 53.1202L29.1099 55.0572C29.3255 55.1293 29.5591 55.1264 29.7729 55.0492L32.5909 54.0232L50.4449 47.5232C51.1878 47.2524 51.8337 46.7675 52.3011 46.1297C52.7685 45.492 53.0364 44.73 53.0709 43.9401C53.1055 43.1501 52.9052 42.3677 52.4953 41.6916C52.0854 41.0154 51.4843 40.4759 50.7679 40.1412H50.7649ZM7.3859 57.8742L3.2809 46.6002L8.9199 44.5472L10.9719 50.1862L13.0239 55.8242L7.3859 57.8742ZM15.2449 56.0742L10.4569 42.9222L16.0999 40.8702L16.4409 41.8092L17.6219 45.0532L20.8879 54.0252L15.2449 56.0742ZM49.7589 45.6442L29.4149 53.0492L23.6809 51.1122C23.4659 51.0388 23.2321 51.0416 23.0189 51.1202L22.0789 51.4622L18.6589 42.0622L24.9379 39.7772L38.2629 42.1272C38.6101 42.1888 38.935 42.3407 39.2048 42.5676C39.4746 42.7946 39.6799 43.0887 39.7999 43.4202C39.8313 43.4984 39.8538 43.58 39.8669 43.6632C39.8669 43.6982 39.8769 43.7342 39.8839 43.7692C39.9287 43.9924 39.9314 44.222 39.8919 44.4462C39.7967 44.9678 39.5001 45.4309 39.0661 45.7354C38.6321 46.0399 38.0957 46.1612 37.5729 46.0732L26.3119 44.0872L25.9649 46.0572L37.2239 48.0422C38.2705 48.2246 39.3468 47.9838 40.2159 47.3729C41.0851 46.7619 41.6761 45.8308 41.8589 44.7842C41.8854 44.6064 41.8998 44.427 41.9019 44.2472L48.3919 41.8852C48.8891 41.7093 49.4356 41.737 49.9126 41.9621C50.3895 42.1872 50.7582 42.5916 50.9385 43.0872C51.1187 43.5828 51.0959 44.1296 50.875 44.6085C50.6541 45.0874 50.2529 45.4597 49.7589 45.6442Z" fill="black"/>
<path d="M14.9999 29C16.3843 29 17.7377 28.5895 18.8889 27.8203C20.04 27.0511 20.9372 25.9579 21.467 24.6788C21.9968 23.3997 22.1355 21.9922 21.8654 20.6344C21.5953 19.2765 20.9286 18.0292 19.9496 17.0503C18.9707 16.0713 17.7234 15.4046 16.3655 15.1345C15.0076 14.8644 13.6002 15.003 12.3211 15.5328C11.042 16.0627 9.94876 16.9599 9.17959 18.111C8.41042 19.2622 7.99988 20.6155 7.99988 22C8.002 23.8559 8.74017 25.6351 10.0525 26.9474C11.3648 28.2597 13.144 28.9979 14.9999 29ZM14.9999 27C13.8477 26.9985 12.7312 26.5999 11.8386 25.8713C10.9461 25.1427 10.332 24.1286 10.0999 23H19.8999C19.6678 24.1286 19.0537 25.1427 18.1611 25.8713C17.2686 26.5999 16.1521 26.9985 14.9999 27ZM14.9999 17C16.1521 17.0015 17.2686 17.4001 18.1611 18.1287C19.0537 18.8573 19.6678 19.8714 19.8999 21H10.0999C10.332 19.8714 10.9461 18.8573 11.8386 18.1287C12.7312 17.4001 13.8477 17.0015 14.9999 17Z" fill="black"/>
<path d="M28.9999 34H36.9999C38.0607 34 39.0782 33.5786 39.8283 32.8284C40.5785 32.0783 40.9999 31.0609 40.9999 30C40.9999 28.9391 40.5785 27.9217 39.8283 27.1716C39.0782 26.4214 38.0607 26 36.9999 26H28.9999C27.939 26 26.9216 26.4214 26.1715 27.1716C25.4213 27.9217 24.9999 28.9391 24.9999 30C24.9999 31.0609 25.4213 32.0783 26.1715 32.8284C26.9216 33.5786 27.939 34 28.9999 34ZM38.9999 30C38.9999 30.5304 38.7892 31.0391 38.4141 31.4142C38.039 31.7893 37.5303 32 36.9999 32H33.9999V28H36.9999C37.5303 28 38.039 28.2107 38.4141 28.5858C38.7892 28.9609 38.9999 29.4696 38.9999 30ZM28.9999 28H31.9999V32H28.9999C28.4694 32 27.9607 31.7893 27.5857 31.4142C27.2106 31.0391 26.9999 30.5304 26.9999 30C26.9999 29.4696 27.2106 28.9609 27.5857 28.5858C27.9607 28.2107 28.4694 28 28.9999 28Z" fill="black"/>
<path d="M55.9289 11.9998C55.3969 11.0825 54.5231 10.4134 53.4988 10.139C52.4745 9.86456 51.3832 10.0073 50.4639 10.5358L43.5359 14.5358C42.6246 15.07 41.9617 15.943 41.6917 16.9642C41.4217 17.9854 41.5666 19.0719 42.0948 19.9866C42.6229 20.9014 43.4914 21.5701 44.5108 21.8468C45.5302 22.1236 46.6176 21.9859 47.5359 21.4638L54.4639 17.4638C55.3817 16.9326 56.0514 16.059 56.326 15.0347C56.6007 14.0104 56.4578 12.919 55.9289 11.9998ZM46.5359 19.7318C46.3083 19.8652 46.0566 19.9523 45.7953 19.988C45.534 20.0238 45.2682 20.0075 45.0132 19.94C44.7582 19.8726 44.519 19.7554 44.3095 19.5952C44.1 19.435 43.9242 19.2349 43.7923 19.0065C43.6605 18.7781 43.5751 18.5258 43.5411 18.2643C43.5071 18.0027 43.5251 17.737 43.5942 17.4825C43.6634 17.2279 43.7821 16.9896 43.9437 16.7811C44.1053 16.5726 44.3066 16.3982 44.5359 16.2678L47.1359 14.7678L49.1359 18.2318L46.5359 19.7318ZM53.4639 15.7318L50.8639 17.2318L48.8639 13.7678L51.4639 12.2678C51.923 12.0068 52.4667 11.938 52.9764 12.0763C53.4861 12.2147 53.9203 12.5491 54.1844 13.0065C54.4485 13.4638 54.5209 14.0071 54.3859 14.5177C54.251 15.0283 53.9195 15.4647 53.4639 15.7318Z" fill="black"/>
<path d="M15.9999 12V8C15.9999 7.44772 15.5522 7 14.9999 7C14.4476 7 13.9999 7.44772 13.9999 8V12C13.9999 12.5523 14.4476 13 14.9999 13C15.5522 13 15.9999 12.5523 15.9999 12Z" fill="black"/>
<path d="M13.9999 4C13.9999 4.55228 14.4476 5 14.9999 5C15.5522 5 15.9999 4.55228 15.9999 4C15.9999 3.44772 15.5522 3 14.9999 3C14.4476 3 13.9999 3.44772 13.9999 4Z" fill="black"/>
<path d="M20.9999 9V5C20.9999 4.44772 20.5522 4 19.9999 4C19.4476 4 18.9999 4.44772 18.9999 5V9C18.9999 9.55228 19.4476 10 19.9999 10C20.5522 10 20.9999 9.55228 20.9999 9Z" fill="black"/>
<path d="M18.9999 1C18.9999 1.55228 19.4476 2 19.9999 2C20.5522 2 20.9999 1.55228 20.9999 1C20.9999 0.447715 20.5522 0 19.9999 0C19.4476 0 18.9999 0.447715 18.9999 1Z" fill="black"/>
<path d="M10.9999 7V3C10.9999 2.44772 10.5522 2 9.99988 2C9.44759 2 8.99988 2.44772 8.99988 3V7C8.99988 7.55228 9.44759 8 9.99988 8C10.5522 8 10.9999 7.55228 10.9999 7Z" fill="black"/>
<path d="M8.99988 11C8.99988 11.5523 9.44759 12 9.99988 12C10.5522 12 10.9999 11.5523 10.9999 11C10.9999 10.4477 10.5522 10 9.99988 10C9.44759 10 8.99988 10.4477 8.99988 11Z" fill="black"/>
<path d="M32.9999 21V17C32.9999 16.4477 32.5522 16 31.9999 16C31.4476 16 30.9999 16.4477 30.9999 17V21C30.9999 21.5523 31.4476 22 31.9999 22C32.5522 22 32.9999 21.5523 32.9999 21Z" fill="black"/>
<path d="M30.9999 13C30.9999 13.5523 31.4476 14 31.9999 14C32.5522 14 32.9999 13.5523 32.9999 13C32.9999 12.4477 32.5522 12 31.9999 12C31.4476 12 30.9999 12.4477 30.9999 13Z" fill="black"/>
<path d="M27.9999 17V11C27.9999 10.4477 27.5522 10 26.9999 10C26.4476 10 25.9999 10.4477 25.9999 11V17C25.9999 17.5523 26.4476 18 26.9999 18C27.5522 18 27.9999 17.5523 27.9999 17Z" fill="black"/>
<path d="M37.9999 14V8C37.9999 7.44772 37.5522 7 36.9999 7C36.4476 7 35.9999 7.44772 35.9999 8V14C35.9999 14.5523 36.4476 15 36.9999 15C37.5522 15 37.9999 14.5523 37.9999 14Z" fill="black"/>
<path d="M35.9999 4C35.9999 4.55228 36.4476 5 36.9999 5C37.5522 5 37.9999 4.55228 37.9999 4C37.9999 3.44772 37.5522 3 36.9999 3C36.4476 3 35.9999 3.44772 35.9999 4Z" fill="black"/>
<path d="M53.9999 7V5C53.9999 4.44772 53.5522 4 52.9999 4C52.4476 4 51.9999 4.44772 51.9999 5V7C51.9999 7.55228 52.4476 8 52.9999 8C53.5522 8 53.9999 7.55228 53.9999 7Z" fill="black"/>
<path d="M48.9999 5V3C48.9999 2.44772 48.5522 2 47.9999 2C47.4476 2 46.9999 2.44772 46.9999 3V5C46.9999 5.55228 47.4476 6 47.9999 6C48.5522 6 48.9999 5.55228 48.9999 5Z" fill="black"/>
<path d="M43.9999 8V4C43.9999 3.44772 43.5522 3 42.9999 3C42.4476 3 41.9999 3.44772 41.9999 4V8C41.9999 8.55228 42.4476 9 42.9999 9C43.5522 9 43.9999 8.55228 43.9999 8Z" fill="black"/>
<path d="M51.9999 1C51.9999 1.55228 52.4476 2 52.9999 2C53.5522 2 53.9999 1.55228 53.9999 1C53.9999 0.447715 53.5522 0 52.9999 0C52.4476 0 51.9999 0.447715 51.9999 1Z" fill="black"/>
</svg>
