<svg width="56" height="60" viewBox="0 0 56 60" fill="none" xmlns="http://www.w3.org/2000/svg">
<path d="M51 6H42.414L36.707 0.293C36.5195 0.105451 36.2652 5.66374e-05 36 0H15C14.4696 0 13.9609 0.210714 13.5858 0.585786C13.2107 0.960859 13 1.46957 13 2V6H5C3.67441 6.00159 2.40356 6.52888 1.46622 7.46622C0.528882 8.40356 0.00158786 9.67441 0 11V43C0.00158786 44.3256 0.528882 45.5964 1.46622 46.5338C2.40356 47.4711 3.67441 47.9984 5 48H19.867L19.117 54H18C17.4696 54 16.9609 54.2107 16.5858 54.5858C16.2107 54.9609 16 55.4696 16 56V58H14V60H42V58H40V56C40 55.4696 39.7893 54.9609 39.4142 54.5858C39.0391 54.2107 38.5304 54 38 54H36.883L36.133 48H51C52.3256 47.9984 53.5964 47.4711 54.5338 46.5338C55.4711 45.5964 55.9984 44.3256 56 43V11C55.9984 9.67441 55.4711 8.40356 54.5338 7.46622C53.5964 6.52888 52.3256 6.00159 51 6ZM37 3.414L39.586 6H37V3.414ZM15 2H35V6C35 6.53043 35.2107 7.03914 35.5858 7.41421C35.9609 7.78929 36.4696 8 37 8H41V34H15V2ZM5 8H13V34C13 34.5304 13.2107 35.0391 13.5858 35.4142C13.9609 35.7893 14.4696 36 15 36H41C41.5304 36 42.0391 35.7893 42.4142 35.4142C42.7893 35.0391 43 34.5304 43 34V8H51C51.7957 8 52.5587 8.31607 53.1213 8.87868C53.6839 9.44129 54 10.2044 54 11V38H2V11C2 10.2044 2.31607 9.44129 2.87868 8.87868C3.44129 8.31607 4.20435 8 5 8ZM38 58H18V56H38V58ZM34.867 54H21.133L21.883 48H34.117L34.867 54ZM51 46H5C4.20435 46 3.44129 45.6839 2.87868 45.1213C2.31607 44.5587 2 43.7957 2 43V40H54V43C54 43.7957 53.6839 44.5587 53.1213 45.1213C52.5587 45.6839 51.7957 46 51 46Z" fill="black"/>
<path d="M49 43C49 43.5523 49.4477 44 50 44C50.5523 44 51 43.5523 51 43C51 42.4477 50.5523 42 50 42C49.4477 42 49 42.4477 49 43Z" fill="black"/>
<path d="M28 8C26.0222 8 24.0888 8.58649 22.4443 9.6853C20.7998 10.7841 19.5181 12.3459 18.7612 14.1732C18.0043 16.0004 17.8063 18.0111 18.1922 19.9509C18.578 21.8907 19.5304 23.6725 20.9289 25.0711C22.3275 26.4696 24.1093 27.422 26.0491 27.8079C27.9889 28.1937 29.9996 27.9957 31.8268 27.2388C33.6541 26.4819 35.2159 25.2002 36.3147 23.5557C37.4135 21.9112 38 19.9778 38 18C37.9971 15.3487 36.9426 12.8069 35.0679 10.9321C33.1931 9.05742 30.6513 8.00291 28 8ZM28 26C26.4178 26 24.871 25.5308 23.5554 24.6518C22.2399 23.7727 21.2145 22.5233 20.609 21.0615C20.0035 19.5997 19.845 17.9911 20.1537 16.4393C20.4624 14.8874 21.2243 13.462 22.3432 12.3431C23.462 11.2243 24.8874 10.4624 26.4393 10.1537C27.9911 9.84504 29.5997 10.0035 31.0615 10.609C32.5233 11.2145 33.7727 12.2398 34.6518 13.5554C35.5308 14.871 36 16.4177 36 18C35.9976 20.121 35.154 22.1544 33.6542 23.6542C32.1545 25.154 30.121 25.9976 28 26Z" fill="black"/>
<path d="M31 15V13C31 12.7348 30.8946 12.4804 30.7071 12.2929C30.5196 12.1054 30.2652 12 30 12H26C25.7348 12 25.4804 12.1054 25.2929 12.2929C25.1054 12.4804 25 12.7348 25 13V15H23C22.7348 15 22.4804 15.1054 22.2929 15.2929C22.1054 15.4804 22 15.7348 22 16V20C22 20.2652 22.1054 20.5196 22.2929 20.7071C22.4804 20.8946 22.7348 21 23 21H25V23C25 23.2652 25.1054 23.5196 25.2929 23.7071C25.4804 23.8946 25.7348 24 26 24H30C30.2652 24 30.5196 23.8946 30.7071 23.7071C30.8946 23.5196 31 23.2652 31 23V21H33C33.2652 21 33.5196 20.8946 33.7071 20.7071C33.8946 20.5196 34 20.2652 34 20V16C34 15.7348 33.8946 15.4804 33.7071 15.2929C33.5196 15.1054 33.2652 15 33 15H31ZM32 19H30C29.7348 19 29.4804 19.1054 29.2929 19.2929C29.1054 19.4804 29 19.7348 29 20V22H27V20C27 19.7348 26.8946 19.4804 26.7071 19.2929C26.5196 19.1054 26.2652 19 26 19H24V17H26C26.2652 17 26.5196 16.8946 26.7071 16.7071C26.8946 16.5196 27 16.2652 27 16V14H29V16C29 16.2652 29.1054 16.5196 29.2929 16.7071C29.4804 16.8946 29.7348 17 30 17H32V19Z" fill="black"/>
</svg>
